<?xml version="1.0" encoding="UTF-8" standalone="no"?>
<!-- Created with Inkscape (http://www.inkscape.org/) -->

<svg
   xmlns:dc="http://purl.org/dc/elements/1.1/"
   xmlns:cc="http://creativecommons.org/ns#"
   xmlns:rdf="http://www.w3.org/1999/02/22-rdf-syntax-ns#"
   xmlns:svg="http://www.w3.org/2000/svg"
   xmlns="http://www.w3.org/2000/svg"
   xmlns:sodipodi="http://sodipodi.sourceforge.net/DTD/sodipodi-0.dtd"
   xmlns:inkscape="http://www.inkscape.org/namespaces/inkscape"
   width="256"
   height="192"
   viewBox="0 0 67.731409 50.800002"
   version="1.1"
   id="svg8"
   inkscape:version="0.92.0 r15299"
   sodipodi:docname="Logo_web_alt1.svg">
  <sodipodi:namedview
     id="base"
     pagecolor="#ffffff"
     bordercolor="#666666"
     borderopacity="1.0"
     inkscape:pageopacity="0.0"
     inkscape:pageshadow="2"
     inkscape:zoom="2"
     inkscape:cx="91.515897"
     inkscape:cy="140.67637"
     inkscape:document-units="mm"
     inkscape:current-layer="layer1"
     showgrid="false"
     units="px"
     inkscape:window-width="2560"
     inkscape:window-height="1377"
     inkscape:window-x="-8"
     inkscape:window-y="-8"
     inkscape:window-maximized="1"
     showguides="true"
     inkscape:guide-bbox="true"
     objecttolerance="20"
     guidetolerance="20"
     inkscape:snap-perpendicular="false"
     inkscape:snap-tangential="false"
     fit-margin-top="0"
     fit-margin-left="0"
     fit-margin-right="0"
     fit-margin-bottom="0"
     viewbox-width="67.73"
     inkscape:pagecheckerboard="true" />
  <defs
     id="defs2">
    <inkscape:path-effect
       is_visible="true"
       id="path-effect4678"
       effect="spiro" />
    <inkscape:path-effect
       is_visible="true"
       id="path-effect4553"
       effect="spiro" />
    <inkscape:path-effect
       effect="spiro"
       id="path-effect4547"
       is_visible="true" />
  </defs>
  <metadata
     id="metadata5">
    <rdf:RDF>
      <cc:Work
         rdf:about="">
        <dc:format>image/svg+xml</dc:format>
        <dc:type
           rdf:resource="http://purl.org/dc/dcmitype/StillImage" />
        <dc:title></dc:title>
      </cc:Work>
    </rdf:RDF>
  </metadata>
  <g
     id="layer1"
     inkscape:groupmode="layer"
     inkscape:label="Layer 1"
     transform="translate(-0.00137307,-237.05562)">
    <path
       style="opacity:1;fill:#ffc107;fill-opacity:1;stroke:none;stroke-width:8;stroke-linecap:round;stroke-linejoin:round;stroke-miterlimit:4;stroke-dasharray:none;stroke-opacity:1;paint-order:stroke fill markers"
       d="m 87.970703,15.814453 c -3.665748,0 -26.084002,0.139896 -29.044922,0.28125 -2.960889,0.140599 -18.467892,4.365152 -18.044922,7.462891 0.07328,0.53726 0.229632,1.052939 0.433594,1.539062 -16.963511,8.496076 -27.676136,25.823253 -27.681641,44.775391 2.7e-4,27.673359 22.46524,50.105993 50.175782,50.105473 10.696535,-0.0189 21.106579,-3.45462 29.710937,-9.80079 h 68.958989 c 8.60476,6.34651 19.01581,9.78053 29.71289,9.80079 27.71054,5.2e-4 50.17544,-22.433916 50.17578,-50.107426 -0.0268,-18.940988 -10.74068,-36.249147 -27.69727,-44.734375 0.21275,-0.497613 0.37583,-1.026201 0.45117,-1.578125 0.42284,-3.097701 -15.08609,-7.32199 -18.04687,-7.462891 -2.96092,-0.140976 -25.37918,-0.28125 -29.04492,-0.28125 -3.32916,0 -2.5019,3.342548 -2.31641,3.982422 H 90.287109 c 0.185084,-0.640139 1.012742,-3.982422 -2.316406,-3.982422 z M 62.125,42.269531 c 3.308835,0.071 6.60989,0.725451 9.714844,1.96875 7.096973,2.84194 12.788001,8.601913 15.53125,15.722657 2.743113,7.120666 2.385114,15.205654 -0.982422,22.054687 -2.35677,4.793045 -6.095428,8.839932 -10.69336,11.572266 -4.59793,2.732258 -9.941337,4.08155 -15.289062,3.86914 -5.347993,-0.212145 -10.565999,-1.980183 -14.931641,-5.068359 -3.716004,-2.628603 -6.721671,-6.163041 -8.75,-10.216797 L 32.037109,83 l 6.201172,-17.017578 11.6875,13.861328 -4.855469,0.857422 c 1.341727,2.013166 3.050635,3.793554 5.015626,5.183594 3.080034,2.178784 6.86298,3.465943 10.638671,3.615234 3.775831,0.14982 7.646237,-0.827887 10.890625,-2.755859 3.244456,-1.9279 5.952372,-4.860367 7.613282,-8.238282 2.352189,-4.783899 2.616922,-10.708727 0.701172,-15.68164 -1.91576,-4.972876 -6.09762,-9.207244 -11.0625,-11.195313 -4.96475,-1.988107 -10.921127,-1.812398 -15.761719,0.458985 -4.840588,2.271458 -8.767488,6.737615 -10.390625,11.8125 l -7.601563,-2.427735 c 2.324451,-7.267464 7.681535,-13.346493 14.601563,-16.59375 3.460047,-1.623609 7.212792,-2.493909 10.992187,-2.603515 0.472433,-0.0137 0.945278,-0.016 1.417969,-0.0059 z m 133.05859,1.113281 c 5.30604,0 9.67383,4.361146 9.67383,9.660157 0,5.298859 -4.36779,9.666015 -9.67383,9.666015 -5.30604,0 -9.67773,-4.367156 -9.67773,-9.666015 0,-5.299011 4.37169,-9.660157 9.67773,-9.660157 z m -21.13476,16.726563 c 5.30604,0 9.67187,4.363099 9.67187,9.662109 0,5.299011 -4.36583,9.666016 -9.67187,9.666016 -5.30597,0 -9.67969,-4.367005 -9.67969,-9.666016 0,-5.29901 4.37372,-9.662109 9.67969,-9.662109 z m 42.66601,0 c 5.30604,0 9.67969,4.363099 9.67969,9.662109 0,5.299011 -4.37365,9.666016 -9.67969,9.666016 -5.30607,0 -9.67382,-4.367005 -9.67382,-9.666016 0,-5.29901 4.36775,-9.662109 9.67382,-9.662109 z M 107.7207,71.898438 h 12.36328 c 3.09297,0 5.68165,2.584971 5.68164,5.673828 0,3.08897 -2.58867,5.675781 -5.68164,5.675781 H 107.7207 c -3.09297,0 -5.68359,-2.586811 -5.68359,-5.675781 0,-3.088857 2.59062,-5.673828 5.68359,-5.673828 z m 28.19922,0 h 12.35938 c 3.09303,0 5.6875,2.584971 5.6875,5.673828 0,3.08897 -2.59447,5.675781 -5.6875,5.675781 h -12.35938 c -3.09293,0 -5.6875,-2.586811 -5.6875,-5.675781 0,-3.088857 2.59457,-5.673828 5.6875,-5.673828 z m 59.26367,5.134765 c 5.30604,0 9.67383,4.365052 9.67383,9.664063 0,5.298897 -4.36779,9.662109 -9.67383,9.662109 -5.30604,0 -9.67773,-4.363212 -9.67773,-9.662109 0,-5.299011 4.37169,-9.664063 9.67773,-9.664063 z"
       transform="matrix(0.26458334,0,0,0.26458334,4.0957e-4,237.05562)"
       id="path5457"
       inkscape:connector-curvature="0" />
    <ellipse
       style="opacity:1;fill:#ffc107;fill-opacity:1;stroke:none;stroke-width:2.11666656;stroke-linecap:round;stroke-linejoin:round;stroke-miterlimit:4;stroke-dasharray:none;stroke-opacity:1;paint-order:stroke fill markers"
       id="ellipse5459"
       cx="51.642574"
       cy="251.09048"
       rx="1.715981"
       ry="1.7136935" />
    <ellipse
       cy="255.51605"
       cx="46.05051"
       id="ellipse5461"
       style="opacity:1;fill:#ffc107;fill-opacity:1;stroke:none;stroke-width:2.11666656;stroke-linecap:round;stroke-linejoin:round;stroke-miterlimit:4;stroke-dasharray:none;stroke-opacity:1;paint-order:stroke fill markers"
       rx="1.715981"
       ry="1.7136935" />
    <ellipse
       style="opacity:1;fill:#ffc107;fill-opacity:1;stroke:none;stroke-width:2.11666656;stroke-linecap:round;stroke-linejoin:round;stroke-miterlimit:4;stroke-dasharray:none;stroke-opacity:1;paint-order:stroke fill markers"
       id="ellipse5463"
       cx="57.340221"
       cy="255.51605"
       rx="1.715981"
       ry="1.7136935" />
    <ellipse
       cy="259.99432"
       cx="51.642574"
       id="ellipse5465"
       style="opacity:1;fill:#ffc107;fill-opacity:1;stroke:none;stroke-width:2.11666656;stroke-linecap:round;stroke-linejoin:round;stroke-miterlimit:4;stroke-dasharray:none;stroke-opacity:1;paint-order:stroke fill markers"
       rx="1.715981"
       ry="1.7136935" />
    <rect
       style="opacity:1;fill:#ffc107;fill-opacity:1;stroke:none;stroke-width:2.11666632;stroke-linecap:round;stroke-linejoin:round;stroke-miterlimit:4;stroke-dasharray:none;stroke-opacity:1;paint-order:stroke fill markers"
       id="rect5467"
       width="4.5897479"
       height="1.3171352"
       x="27.841843"
       y="256.92191"
       ry="0.65856761" />
    <rect
       ry="0.65856761"
       y="256.92191"
       x="35.302616"
       height="1.3171352"
       width="4.5897479"
       id="rect5469"
       style="opacity:1;fill:#ffc107;fill-opacity:1;stroke:none;stroke-width:2.11666632;stroke-linecap:round;stroke-linejoin:round;stroke-miterlimit:4;stroke-dasharray:none;stroke-opacity:1;paint-order:stroke fill markers" />
    <g
       aria-label="Backity"
       transform="scale(1.2686,0.78827053)"
       style="font-style:normal;font-variant:normal;font-weight:normal;font-stretch:normal;font-size:16.81563377px;line-height:10.50976658px;font-family:Lato;-inkscape-font-specification:Lato;letter-spacing:0px;word-spacing:0px;fill:#ffc107;fill-opacity:1;stroke:none;stroke-width:2.11666679;stroke-miterlimit:4;stroke-dasharray:none;stroke-opacity:1"
       id="text5479">
      <path
         d="M 8.399339,347.96029 H 5.6079438 v 11.77094 h 2.9091047 c 1.8497195,0 2.8082105,-0.97531 2.8082105,-2.79139 v -0.95849 c 0,-1.24436 -0.386759,-2.11877 -1.3788817,-2.50553 v -0.0336 c 0.8239657,-0.38675 1.1939097,-1.14346 1.1939097,-2.35418 v -0.42039 c 0,-1.81609 -0.823966,-2.70732 -2.740948,-2.70732 z m -0.1177094,6.47402 c 0.8407817,0 1.19391,0.33631 1.19391,1.42933 v 1.02575 c 0,0.87441 -0.3363127,1.16028 -0.9584911,1.16028 h -1.059385 v -3.61536 z m 0.067263,-4.79246 c 0.6558097,0 0.9416755,0.36995 0.9416755,1.21073 v 0.65581 c 0,0.94167 -0.4203908,1.24435 -1.1098318,1.24435 H 7.4576635 v -3.11089 z"
         style="font-style:normal;font-variant:normal;font-weight:normal;font-stretch:normal;font-family:'Bebas Neue';-inkscape-font-specification:'Bebas Neue';fill:#ffc107;fill-opacity:1;stroke:none;stroke-width:2.11666679;stroke-miterlimit:4;stroke-dasharray:none;stroke-opacity:1"
         id="path5520"
         inkscape:connector-curvature="0" />
      <path
         d="m 16.54231,347.96029 h -2.707317 l -1.883351,11.77094 h 1.698379 l 0.319497,-2.13558 h 2.27011 l 0.319497,2.13558 h 1.866536 z m -1.46296,2.08514 h 0.03363 l 0.874413,5.95273 h -1.782457 z"
         style="font-style:normal;font-variant:normal;font-weight:normal;font-stretch:normal;font-family:'Bebas Neue';-inkscape-font-specification:'Bebas Neue';fill:#ffc107;fill-opacity:1;stroke:none;stroke-width:2.11666679;stroke-miterlimit:4;stroke-dasharray:none;stroke-opacity:1"
         id="path5522"
         inkscape:connector-curvature="0" />
      <path
         d="m 22.853165,355.34235 v 1.68156 c 0,0.84079 -0.369944,1.14347 -0.958491,1.14347 -0.588547,0 -0.958491,-0.30268 -0.958491,-1.14347 v -6.3563 c 0,-0.84079 0.369944,-1.16028 0.958491,-1.16028 0.588547,0 0.958491,0.31949 0.958491,1.16028 v 1.26117 h 1.748826 v -1.14347 c 0,-1.88335 -0.941676,-2.95955 -2.757764,-2.95955 -1.816088,0 -2.757764,1.0762 -2.757764,2.95955 v 6.1209 c 0,1.88335 0.941676,2.95955 2.757764,2.95955 1.816088,0 2.757764,-1.0762 2.757764,-2.95955 v -1.56386 z"
         style="font-style:normal;font-variant:normal;font-weight:normal;font-stretch:normal;font-family:'Bebas Neue';-inkscape-font-specification:'Bebas Neue';fill:#ffc107;fill-opacity:1;stroke:none;stroke-width:2.11666679;stroke-miterlimit:4;stroke-dasharray:none;stroke-opacity:1"
         id="path5524"
         inkscape:connector-curvature="0" />
      <path
         d="m 29.961448,359.73123 h 1.900167 l -2.572792,-6.52446 2.572792,-5.24648 h -1.84972 l -2.38782,5.09514 h -0.03363 v -5.09514 h -1.84972 v 11.77094 h 1.84972 v -3.61536 l 0.571731,-1.0762 z"
         style="font-style:normal;font-variant:normal;font-weight:normal;font-stretch:normal;font-family:'Bebas Neue';-inkscape-font-specification:'Bebas Neue';fill:#ffc107;fill-opacity:1;stroke:none;stroke-width:2.11666679;stroke-miterlimit:4;stroke-dasharray:none;stroke-opacity:1"
         id="path5526"
         inkscape:connector-curvature="0" />
      <path
         d="m 32.703449,359.73123 h 1.849719 v -11.77094 h -1.849719 z"
         style="font-style:normal;font-variant:normal;font-weight:normal;font-stretch:normal;font-family:'Bebas Neue';-inkscape-font-specification:'Bebas Neue';fill:#ffc107;fill-opacity:1;stroke:none;stroke-width:2.11666679;stroke-miterlimit:4;stroke-dasharray:none;stroke-opacity:1"
         id="path5528"
         inkscape:connector-curvature="0" />
      <path
         d="m 35.351122,349.64185 h 1.933798 v 10.08938 h 1.84972 v -10.08938 h 1.933798 v -1.68156 h -5.717316 z"
         style="font-style:normal;font-variant:normal;font-weight:normal;font-stretch:normal;font-family:'Bebas Neue';-inkscape-font-specification:'Bebas Neue';fill:#ffc107;fill-opacity:1;stroke:none;stroke-width:2.11666679;stroke-miterlimit:4;stroke-dasharray:none;stroke-opacity:1"
         id="path5530"
         inkscape:connector-curvature="0" />
      <path
         d="m 43.598663,359.73123 h 1.84972 V 355.83 l 2.337373,-7.86971 h -1.765642 l -1.395697,5.36419 h -0.03363 l -1.395697,-5.36419 h -1.9338 l 2.337373,7.86971 z"
         style="font-style:normal;font-variant:normal;font-weight:normal;font-stretch:normal;font-family:'Bebas Neue';-inkscape-font-specification:'Bebas Neue';fill:#ffc107;fill-opacity:1;stroke:none;stroke-width:2.11666679;stroke-miterlimit:4;stroke-dasharray:none;stroke-opacity:1"
         id="path5532"
         inkscape:connector-curvature="0" />
    </g>
  </g>
</svg>
