<?xml version="1.0" encoding="UTF-8" standalone="no"?>
<!-- Created with Inkscape (http://www.inkscape.org/) -->

<svg
  xmlns:dc="http://purl.org/dc/elements/1.1/"
  xmlns:cc="http://creativecommons.org/ns#"
  xmlns:rdf="http://www.w3.org/1999/02/22-rdf-syntax-ns#"
  xmlns="http://www.w3.org/2000/svg"
  xmlns:sodipodi="http://sodipodi.sourceforge.net/DTD/sodipodi-0.dtd"
  xmlns:inkscape="http://www.inkscape.org/namespaces/inkscape"
  width="108.23323mm"
  height="35.221096mm"
  viewBox="0 0 108.23323 35.221096"
  version="1.1"
  id="svg6729"
  sodipodi:docname="logo_dark_bg.svg"
  inkscape:version="0.92.0 r15299">
  <defs
     id="defs6723" />
  <sodipodi:namedview
     id="base"
     pagecolor="#1a1a1a"
     bordercolor="#666666"
     borderopacity="1.0"
     inkscape:pageopacity="0"
     inkscape:pageshadow="2"
     inkscape:zoom="1.4"
     inkscape:cx="103.27275"
     inkscape:cy="91.418184"
     inkscape:document-units="mm"
     inkscape:current-layer="layer1"
     showgrid="false"
     fit-margin-top="0"
     fit-margin-left="0"
     fit-margin-right="0"
     fit-margin-bottom="0"
     inkscape:window-width="2560"
     inkscape:window-height="1369"
     inkscape:window-x="-8"
     inkscape:window-y="-8"
     inkscape:window-maximized="1" />
  <metadata
     id="metadata6726">
    <rdf:RDF>
      <cc:Work
         rdf:about="">
        <dc:format>image/svg+xml</dc:format>
        <dc:type
           rdf:resource="http://purl.org/dc/dcmitype/StillImage" />
        <dc:title></dc:title>
      </cc:Work>
    </rdf:RDF>
  </metadata>
  <g
     inkscape:label="Layer 1"
     inkscape:groupmode="layer"
     id="layer1"
     transform="translate(-32.817908,-42.020404)">
    <path
       inkscape:connector-curvature="0"
       style="opacity:1;fill:#ffc107;fill-opacity:1;stroke:none;stroke-width:3.96875024;stroke-linecap:round;stroke-linejoin:round;stroke-miterlimit:4;stroke-dasharray:none;stroke-opacity:1;paint-order:stroke fill markers"
       d="m 60.177997,42.020404 c -1.55902,0 -11.092958,0.0599 -12.352219,0.120386 -1.25925,0.06001 -7.85537,1.858909 -7.675501,3.178122 0.05976,0.43815 0.246123,0.841878 0.467156,1.187503 a 16.644657,16.644657 0 0 0 -7.799525,14.090625 16.644657,16.644657 0 0 0 16.64498,16.64446 16.644657,16.644657 0 0 0 9.854694,-3.25509 h 22.878707 a 16.644657,16.644657 0 0 0 9.856247,3.25509 16.644657,16.644657 0 0 0 13.710794,-7.23884 H 57.895447 A 12.647455,12.647455 0 0 1 49.462888,73.24433 12.647455,12.647455 0 0 1 36.81508,60.59704 12.647455,12.647455 0 0 1 49.391575,47.951807 v -0.005 h 53.421545 a 16.644657,16.644657 0 0 0 -1.95079,-1.447982 c 0.21882,-0.343906 0.40269,-0.744935 0.46199,-1.179751 0.17986,-1.319212 -6.415752,-3.118114 -7.674984,-3.178122 -1.259258,-0.06048 -10.793714,-0.120385 -12.352734,-0.120385 -1.559028,0 -0.959115,1.798849 -0.959115,1.798849 l 0.04651,0.143669 h -19.29288 l 0.04651,-0.143669 c 0,0 0.599417,-1.798849 -0.95963,-1.798849 z"
       id="circle6605" />
    <g
       id="g6615"
       transform="matrix(1.2202606,0,0,1.2202606,-185.95369,-1319.9961)"
       style="stroke-width:0.81949711">
      <g
         aria-label="BackITY"
         transform="scale(1.2677542,0.78879644)"
         style="font-style:normal;font-variant:normal;font-weight:normal;font-stretch:normal;font-size:20.3995533px;line-height:12.74971962px;font-family:Lato;-inkscape-font-specification:Lato;letter-spacing:0px;word-spacing:0px;fill:#ffc107;fill-opacity:1;stroke:none;stroke-width:0.21682531"
         id="text6613">
        <path
           d="m 163.60043,1425.5962 h -3.38633 v 14.2797 h 3.52912 c 2.24395,0 3.40673,-1.1832 3.40673,-3.3864 v -1.1627 c 0,-1.5096 -0.46919,-2.5704 -1.67277,-3.0396 v -0.041 c 0.99958,-0.4692 1.44837,-1.3871 1.44837,-2.8559 v -0.51 c 0,-2.2032 -0.99958,-3.2843 -3.32512,-3.2843 z m -0.1428,7.8538 c 1.01998,0 1.44837,0.408 1.44837,1.734 v 1.2443 c 0,1.0608 -0.40799,1.4076 -1.16278,1.4076 h -1.28517 v -4.3859 z m 0.0816,-5.8139 c 0.79558,0 1.14237,0.4488 1.14237,1.4688 v 0.7956 c 0,1.1423 -0.50999,1.5095 -1.34637,1.5095 h -0.87718 v -3.7739 z"
           style="font-style:normal;font-variant:normal;font-weight:normal;font-stretch:normal;font-family:'Bebas Neue';-inkscape-font-specification:'Bebas Neue';fill:#ffc107;fill-opacity:1;stroke-width:0.21682531"
           id="path7295" />
        <path
           d="m 173.47891,1425.5962 h -3.28433 l -2.28475,14.2797 h 2.06036 l 0.38759,-2.5908 h 2.75394 l 0.38759,2.5908 h 2.26435 z m -1.77476,2.5295 h 0.0408 l 1.06077,7.2215 h -2.16235 z"
           style="font-style:normal;font-variant:normal;font-weight:normal;font-stretch:normal;font-family:'Bebas Neue';-inkscape-font-specification:'Bebas Neue';fill:#ffc107;fill-opacity:1;stroke-width:0.21682531"
           id="path7297" />
        <path
           d="m 181.1348,1434.5516 v 2.0399 c 0,1.02 -0.44879,1.3872 -1.16278,1.3872 -0.71398,0 -1.16277,-0.3672 -1.16277,-1.3872 v -7.711 c 0,-1.02 0.44879,-1.4076 1.16277,-1.4076 0.71399,0 1.16278,0.3876 1.16278,1.4076 v 1.53 h 2.12155 v -1.3872 c 0,-2.2848 -1.14237,-3.5903 -3.34553,-3.5903 -2.20315,0 -3.34552,1.3055 -3.34552,3.5903 v 7.4254 c 0,2.2848 1.14237,3.5904 3.34552,3.5904 2.20316,0 3.34553,-1.3056 3.34553,-3.5904 v -1.8971 z"
           style="font-style:normal;font-variant:normal;font-weight:normal;font-stretch:normal;font-family:'Bebas Neue';-inkscape-font-specification:'Bebas Neue';fill:#ffc107;fill-opacity:1;stroke-width:0.21682531"
           id="path7299" />
        <path
           d="m 189.75807,1439.8759 h 2.30515 l -3.12113,-7.9151 3.12113,-6.3646 h -2.24395 l -2.89674,6.181 h -0.0408 v -6.181 h -2.24395 v 14.2797 h 2.24395 v -4.3859 l 0.69359,-1.3056 z"
           style="font-style:normal;font-variant:normal;font-weight:normal;font-stretch:normal;font-family:'Bebas Neue';-inkscape-font-specification:'Bebas Neue';fill:#ffc107;fill-opacity:1;stroke-width:0.21682531"
           id="path7301" />
        <path
           d="m 193.08447,1439.8759 h 2.24395 v -14.2797 h -2.24395 z"
           style="font-style:normal;font-variant:normal;font-weight:normal;font-stretch:normal;font-family:'Bebas Neue';-inkscape-font-specification:'Bebas Neue';fill:#ffc107;fill-opacity:1;stroke-width:0.21682531"
           id="path7303" />
        <path
           d="m 196.29645,1427.6361 h 2.34595 v 12.2398 h 2.24395 v -12.2398 h 2.34595 v -2.0399 h -6.93585 z"
           style="font-style:normal;font-variant:normal;font-weight:normal;font-stretch:normal;font-family:'Bebas Neue';-inkscape-font-specification:'Bebas Neue';fill:#ffc107;fill-opacity:1;stroke-width:0.21682531"
           id="path7305" />
        <path
           d="m 206.30179,1439.8759 h 2.24395 v -4.7327 l 2.83554,-9.547 h -2.14195 l -1.69317,6.5074 h -0.0408 l -1.69316,-6.5074 h -2.34595 l 2.83554,9.547 z"
           style="font-style:normal;font-variant:normal;font-weight:normal;font-stretch:normal;font-family:'Bebas Neue';-inkscape-font-specification:'Bebas Neue';fill:#ffc107;fill-opacity:1;stroke-width:0.21682531"
           id="path7307" />
      </g>
    </g>
    <g
       style="stroke-width:1.10714281"
       id="g6621"
       transform="matrix(0.9032258,0,0,0.9032258,-129.59732,-112.64502)">
      <path
         style="color:#000000;font-style:normal;font-variant:normal;font-weight:normal;font-stretch:normal;font-size:medium;line-height:normal;font-family:sans-serif;font-variant-ligatures:normal;font-variant-position:normal;font-variant-caps:normal;font-variant-numeric:normal;font-variant-alternates:normal;font-feature-settings:normal;text-indent:0;text-align:start;text-decoration:none;text-decoration-line:none;text-decoration-style:solid;text-decoration-color:#000000;letter-spacing:normal;word-spacing:normal;text-transform:none;writing-mode:lr-tb;direction:ltr;text-orientation:mixed;dominant-baseline:auto;baseline-shift:baseline;text-anchor:start;white-space:normal;shape-padding:0;clip-rule:nonzero;display:inline;overflow:visible;visibility:visible;opacity:1;isolation:auto;mix-blend-mode:normal;color-interpolation:sRGB;color-interpolation-filters:linearRGB;solid-color:#000000;solid-opacity:1;vector-effect:none;fill:#ffc107;fill-opacity:1;fill-rule:nonzero;stroke:none;stroke-width:11.33858204;stroke-linecap:butt;stroke-linejoin:miter;stroke-miterlimit:4;stroke-dasharray:none;stroke-dashoffset:0;stroke-opacity:1;color-rendering:auto;image-rendering:auto;shape-rendering:auto;text-rendering:auto;enable-background:accumulate"
         d="M 62.888672 38.417969 C 62.345573 38.406198 61.802567 38.408112 61.259766 38.423828 C 56.917352 38.549455 52.603067 39.550763 48.617188 41.423828 C 40.645598 45.170028 34.508144 52.153998 31.830078 60.539062 L 42.630859 63.994141 C 44.31214 58.729976 48.42422 54.042446 53.439453 51.685547 C 58.454754 49.328716 64.695707 49.148066 69.839844 51.210938 C 74.983912 53.273809 79.357408 57.714572 81.341797 62.873047 C 83.326151 68.031453 83.05164 74.246528 80.615234 79.208984 C 78.891248 82.718064 76.061867 85.779766 72.695312 87.783203 C 69.327358 89.787494 65.287182 90.81202 61.367188 90.65625 C 57.447398 90.500582 53.496094 89.155659 50.298828 86.890625 C 49.418629 86.267082 48.592449 85.559806 47.818359 84.796875 L 55.240234 79.246094 L 30.40625 71.919922 L 31.294922 97.15625 L 38.658203 91.648438 C 40.183458 93.316901 41.886626 94.828651 43.744141 96.144531 C 48.768932 99.704237 54.764593 101.73995 60.919922 101.98438 C 67.072656 102.22744 73.203826 100.67172 78.494141 97.523438 C 83.786333 94.374033 88.076244 89.728409 90.789062 84.203125 C 94.66874 76.30104 95.084259 67.014536 91.923828 58.798828 C 88.763329 50.583155 82.23604 43.96992 74.060547 40.691406 C 70.483768 39.257057 66.690363 38.500361 62.888672 38.417969 z "
         transform="matrix(0.29293155,0,0,0.29293155,179.81686,171.23672)"
         id="path6617" />
    </g>
  </g>
</svg>
