<?xml version="1.0" encoding="UTF-8" standalone="no"?>
<!-- Created with Inkscape (http://www.inkscape.org/) -->

<svg
   xmlns:dc="http://purl.org/dc/elements/1.1/"
   xmlns:cc="http://creativecommons.org/ns#"
   xmlns:rdf="http://www.w3.org/1999/02/22-rdf-syntax-ns#"
   xmlns:svg="http://www.w3.org/2000/svg"
   xmlns="http://www.w3.org/2000/svg"
   xmlns:sodipodi="http://sodipodi.sourceforge.net/DTD/sodipodi-0.dtd"
   xmlns:inkscape="http://www.inkscape.org/namespaces/inkscape"
   width="256"
   height="192"
   viewBox="0 0 67.731409 50.800002"
   version="1.1"
   id="svg8"
   inkscape:version="0.92.0 r15299"
   sodipodi:docname="Logo_web.svg">
  <sodipodi:namedview
     id="base"
     pagecolor="#ffffff"
     bordercolor="#666666"
     borderopacity="1.0"
     inkscape:pageopacity="0.0"
     inkscape:pageshadow="2"
     inkscape:zoom="2"
     inkscape:cx="78.89117"
     inkscape:cy="143.63007"
     inkscape:document-units="mm"
     inkscape:current-layer="layer1"
     showgrid="false"
     units="px"
     inkscape:window-width="2560"
     inkscape:window-height="1377"
     inkscape:window-x="-8"
     inkscape:window-y="-8"
     inkscape:window-maximized="1"
     showguides="true"
     inkscape:guide-bbox="true"
     objecttolerance="20"
     guidetolerance="20"
     inkscape:snap-perpendicular="false"
     inkscape:snap-tangential="false"
     fit-margin-top="0"
     fit-margin-left="0"
     fit-margin-right="0"
     fit-margin-bottom="0"
     viewbox-width="67.73"
     inkscape:pagecheckerboard="true" />
  <defs
     id="defs2">
    <inkscape:path-effect
       is_visible="true"
       id="path-effect4678"
       effect="spiro" />
    <inkscape:path-effect
       is_visible="true"
       id="path-effect4553"
       effect="spiro" />
    <inkscape:path-effect
       effect="spiro"
       id="path-effect4547"
       is_visible="true" />
  </defs>
  <metadata
     id="metadata5">
    <rdf:RDF>
      <cc:Work
         rdf:about="">
        <dc:format>image/svg+xml</dc:format>
        <dc:type
           rdf:resource="http://purl.org/dc/dcmitype/StillImage" />
        <dc:title></dc:title>
      </cc:Work>
    </rdf:RDF>
  </metadata>
  <g
     id="layer1"
     inkscape:groupmode="layer"
     inkscape:label="Layer 1"
     transform="translate(-0.00137307,-237.05562)">
    <rect
       ry="6.155158"
       y="237.48892"
       x="0.0017058658"
       height="49.933407"
       width="67.730743"
       id="rect5481"
       style="opacity:1;fill:#ffffff;fill-opacity:1;stroke:none;stroke-width:2.11666679;stroke-linecap:round;stroke-linejoin:round;stroke-miterlimit:4;stroke-dasharray:none;stroke-opacity:1;paint-order:stroke fill markers" />
    <g
       transform="matrix(0.89350853,0,0,0.89231526,3.6077109,27.875826)"
       id="g5451"
       style="stroke-width:1.1199317">
      <path
         inkscape:connector-curvature="0"
         id="path5447"
         d="m 13.938938,246.95876 c -1.119144,0.0325 -2.230354,0.29089 -3.254934,0.77231 -2.0491394,0.96286 -3.6353252,2.76501 -4.3236354,4.91991 l 2.2507302,0.72003 c 0.4806388,-1.50478 1.6437262,-2.82899 3.0771092,-3.50251 1.433383,-0.6735 3.196935,-0.72547 4.667083,-0.13597 1.470188,0.58948 2.70858,1.84492 3.275869,3.31944 0.567288,1.47453 0.489052,3.23119 -0.207472,4.64968 -0.491824,1.0016 -1.29348,1.87085 -2.25422,2.4425 -0.960719,0.57168 -2.107198,0.86209 -3.225286,0.81767 -1.118048,-0.0443 -2.238289,-0.42615 -3.150341,-1.07219 -0.9120509,-0.64605 -1.6398378,-1.57425 -2.050256,-2.61163 l -2.196679,0.86821 c 0.5824209,1.47218 1.5890967,2.75594 2.8818391,3.67162 1.2927419,0.91568 2.8376569,1.43993 4.4212909,1.50283 1.583554,0.063 3.166091,-0.33701 4.527619,-1.14716 1.361527,-0.81017 2.468151,-2.00983 3.166031,-3.43103 0.997186,-2.03083 1.103434,-4.42816 0.291151,-6.53953 -0.812323,-2.11139 -2.497579,-3.81923 -4.599116,-4.6619 -1.050778,-0.42132 -2.177618,-0.6147 -3.296783,-0.58228 z"
         style="color:#000000;font-style:normal;font-variant:normal;font-weight:normal;font-stretch:normal;font-size:medium;line-height:normal;font-family:sans-serif;font-variant-ligatures:normal;font-variant-position:normal;font-variant-caps:normal;font-variant-numeric:normal;font-variant-alternates:normal;font-feature-settings:normal;text-indent:0;text-align:start;text-decoration:none;text-decoration-line:none;text-decoration-style:solid;text-decoration-color:#000000;letter-spacing:normal;word-spacing:normal;text-transform:none;writing-mode:lr-tb;direction:ltr;text-orientation:mixed;dominant-baseline:auto;baseline-shift:baseline;text-anchor:start;white-space:normal;shape-padding:0;clip-rule:nonzero;display:inline;overflow:visible;visibility:visible;opacity:1;isolation:auto;mix-blend-mode:normal;color-interpolation:sRGB;color-interpolation-filters:linearRGB;solid-color:#000000;solid-opacity:1;vector-effect:none;fill:#ffc107;fill-opacity:1;fill-rule:nonzero;stroke:none;stroke-width:2.96315217;stroke-linecap:butt;stroke-linejoin:miter;stroke-miterlimit:4;stroke-dasharray:none;stroke-dashoffset:0;stroke-opacity:1;color-rendering:auto;image-rendering:auto;shape-rendering:auto;text-rendering:auto;enable-background:accumulate" />
      <path
         style="opacity:1;fill:#ffc107;fill-opacity:1;stroke:none;stroke-width:4.14841413;stroke-linecap:round;stroke-linejoin:round;stroke-miterlimit:4;stroke-dasharray:none;stroke-opacity:1;paint-order:stroke fill markers"
         inkscape:transform-center-x="-0.19974242"
         inkscape:transform-center-y="-0.39102898"
         d="m 10.746729,258.09816 -5.2974747,0.93602 1.8364043,-5.04598 z"
         id="path5449"
         inkscape:connector-curvature="0" />
    </g>
    <path
       sodipodi:nodetypes="sccccccccccccsccsssssssssssssssssssssssssssssssssss"
       inkscape:connector-curvature="0"
       id="path5457"
       d="m 23.276016,241.23967 c -0.969896,0 -6.901202,0.0372 -7.684612,0.0746 -0.783402,0.0372 -4.886706,1.15486 -4.774795,1.97447 0.01939,0.14215 0.06094,0.27845 0.114905,0.40707 -4.4882625,2.24792 -7.3225073,6.83239 -7.3239638,11.84681 7.14e-5,7.32191 5.943726,13.25746 13.2754738,13.25732 2.830125,-0.005 5.584446,-0.91402 7.861016,-2.59311 h 18.245659 c 2.276677,1.67918 5.031159,2.58775 7.861427,2.59311 7.331748,1.4e-4 13.275384,-5.93541 13.275472,-13.25736 -0.0071,-5.01147 -2.84166,-9.59105 -7.328091,-11.8361 0.05629,-0.13166 0.09924,-0.27176 0.119176,-0.41779 0.111876,-0.8196 -3.991419,-1.93719 -4.774793,-1.97447 -0.783411,-0.0373 -6.714717,-0.0746 -7.684611,-0.0746 -0.88084,0 -0.661956,0.88439 -0.612877,1.05369 H 23.88889 c 0.04897,-0.16937 0.267963,-1.05369 -0.612874,-1.05369 z m 28.366928,7.29445 c 1.40389,0 2.559464,1.15364 2.559464,2.55567 0,1.40199 -1.155574,2.5577 -2.559464,2.5577 -1.40389,0 -2.560732,-1.15571 -2.560732,-2.5577 0,-1.40203 1.156842,-2.55567 2.560732,-2.55567 z m -5.592121,4.42557 c 1.40389,0 2.559071,1.15405 2.559071,2.55608 0,1.40203 -1.155181,2.5577 -2.559071,2.5577 -1.403871,0 -2.561124,-1.15567 -2.561124,-2.5577 0,-1.40203 1.157253,-2.55608 2.561124,-2.55608 z m 11.288909,0 c 1.403889,0 2.560733,1.15405 2.560733,2.55608 0,1.40203 -1.156844,2.5577 -2.560733,2.5577 -1.403899,0 -2.559464,-1.15567 -2.559464,-2.5577 0,-1.40203 1.155565,-2.55608 2.559464,-2.55608 z m -28.838426,3.11914 h 3.271278 c 0.818346,0 1.503123,0.68386 1.503123,1.50112 0,0.81729 -0.684777,1.50153 -1.503123,1.50153 h -3.271278 c -0.818348,0 -1.503534,-0.68424 -1.503534,-1.50153 0,-0.81726 0.685186,-1.50112 1.503534,-1.50112 z m 7.461216,0 h 3.270036 c 0.818364,0 1.504777,0.68386 1.504777,1.50112 0,0.81729 -0.686413,1.50153 -1.504777,1.50153 h -3.270036 c -0.818337,0 -1.504748,-0.68424 -1.504748,-1.50153 0,-0.81726 0.686411,-1.50112 1.504748,-1.50112 z m 15.680422,1.3583 c 1.40389,0 2.559464,1.15529 2.559464,2.55732 0,1.402 -1.155574,2.55605 -2.559464,2.55605 -1.40389,0 -2.560732,-1.15405 -2.560732,-2.55605 0,-1.40203 1.156842,-2.55732 2.560732,-2.55732 z"
       style="opacity:1;fill:#1a1a1a;fill-opacity:1;stroke:none;stroke-width:2.11666679;stroke-linecap:round;stroke-linejoin:round;stroke-miterlimit:4;stroke-dasharray:none;stroke-opacity:1;paint-order:stroke fill markers" />
    <ellipse
       style="opacity:1;fill:#1a1a1a;fill-opacity:1;stroke:none;stroke-width:2.11666656;stroke-linecap:round;stroke-linejoin:round;stroke-miterlimit:4;stroke-dasharray:none;stroke-opacity:1;paint-order:stroke fill markers"
       id="ellipse5459"
       cx="51.642574"
       cy="251.09048"
       rx="1.715981"
       ry="1.7136935" />
    <ellipse
       cy="255.51605"
       cx="46.05051"
       id="ellipse5461"
       style="opacity:1;fill:#1a1a1a;fill-opacity:1;stroke:none;stroke-width:2.11666656;stroke-linecap:round;stroke-linejoin:round;stroke-miterlimit:4;stroke-dasharray:none;stroke-opacity:1;paint-order:stroke fill markers"
       rx="1.715981"
       ry="1.7136935" />
    <ellipse
       style="opacity:1;fill:#1a1a1a;fill-opacity:1;stroke:none;stroke-width:2.11666656;stroke-linecap:round;stroke-linejoin:round;stroke-miterlimit:4;stroke-dasharray:none;stroke-opacity:1;paint-order:stroke fill markers"
       id="ellipse5463"
       cx="57.340221"
       cy="255.51605"
       rx="1.715981"
       ry="1.7136935" />
    <ellipse
       cy="259.99432"
       cx="51.642574"
       id="ellipse5465"
       style="opacity:1;fill:#1a1a1a;fill-opacity:1;stroke:none;stroke-width:2.11666656;stroke-linecap:round;stroke-linejoin:round;stroke-miterlimit:4;stroke-dasharray:none;stroke-opacity:1;paint-order:stroke fill markers"
       rx="1.715981"
       ry="1.7136935" />
    <rect
       style="opacity:1;fill:#1a1a1a;fill-opacity:1;stroke:none;stroke-width:2.11666632;stroke-linecap:round;stroke-linejoin:round;stroke-miterlimit:4;stroke-dasharray:none;stroke-opacity:1;paint-order:stroke fill markers"
       id="rect5467"
       width="4.5897479"
       height="1.3171352"
       x="27.841843"
       y="256.92191"
       ry="0.65856761" />
    <rect
       ry="0.65856761"
       y="256.92191"
       x="35.302616"
       height="1.3171352"
       width="4.5897479"
       id="rect5469"
       style="opacity:1;fill:#1a1a1a;fill-opacity:1;stroke:none;stroke-width:2.11666632;stroke-linecap:round;stroke-linejoin:round;stroke-miterlimit:4;stroke-dasharray:none;stroke-opacity:1;paint-order:stroke fill markers" />
    <g
       transform="matrix(0.89350853,0,0,0.89231526,3.6077109,27.875826)"
       id="g5475"
       style="stroke-width:1.1199317">
      <path
         style="color:#000000;font-style:normal;font-variant:normal;font-weight:normal;font-stretch:normal;font-size:medium;line-height:normal;font-family:sans-serif;font-variant-ligatures:normal;font-variant-position:normal;font-variant-caps:normal;font-variant-numeric:normal;font-variant-alternates:normal;font-feature-settings:normal;text-indent:0;text-align:start;text-decoration:none;text-decoration-line:none;text-decoration-style:solid;text-decoration-color:#000000;letter-spacing:normal;word-spacing:normal;text-transform:none;writing-mode:lr-tb;direction:ltr;text-orientation:mixed;dominant-baseline:auto;baseline-shift:baseline;text-anchor:start;white-space:normal;shape-padding:0;clip-rule:nonzero;display:inline;overflow:visible;visibility:visible;opacity:1;isolation:auto;mix-blend-mode:normal;color-interpolation:sRGB;color-interpolation-filters:linearRGB;solid-color:#000000;solid-opacity:1;vector-effect:none;fill:#ffc107;fill-opacity:1;fill-rule:nonzero;stroke:none;stroke-width:2.96315217;stroke-linecap:butt;stroke-linejoin:miter;stroke-miterlimit:4;stroke-dasharray:none;stroke-dashoffset:0;stroke-opacity:1;color-rendering:auto;image-rendering:auto;shape-rendering:auto;text-rendering:auto;enable-background:accumulate"
         d="m 13.938938,246.95876 c -1.119144,0.0325 -2.230354,0.29089 -3.254934,0.77231 -2.0491394,0.96286 -3.6353252,2.76501 -4.3236354,4.91991 l 2.2507302,0.72003 c 0.4806388,-1.50478 1.6437262,-2.82899 3.0771092,-3.50251 1.433383,-0.6735 3.196935,-0.72547 4.667083,-0.13597 1.470188,0.58948 2.70858,1.84492 3.275869,3.31944 0.567288,1.47453 0.489052,3.23119 -0.207472,4.64968 -0.491824,1.0016 -1.29348,1.87085 -2.25422,2.4425 -0.960719,0.57168 -2.107198,0.86209 -3.225286,0.81767 -1.118048,-0.0443 -2.238289,-0.42615 -3.150341,-1.07219 -0.9120509,-0.64605 -1.6398378,-1.57425 -2.050256,-2.61163 l -2.196679,0.86821 c 0.5824209,1.47218 1.5890967,2.75594 2.8818391,3.67162 1.2927419,0.91568 2.8376569,1.43993 4.4212909,1.50283 1.583554,0.063 3.166091,-0.33701 4.527619,-1.14716 1.361527,-0.81017 2.468151,-2.00983 3.166031,-3.43103 0.997186,-2.03083 1.103434,-4.42816 0.291151,-6.53953 -0.812323,-2.11139 -2.497579,-3.81923 -4.599116,-4.6619 -1.050778,-0.42132 -2.177618,-0.6147 -3.296783,-0.58228 z"
         id="path5471"
         inkscape:connector-curvature="0" />
      <path
         inkscape:connector-curvature="0"
         id="path5473"
         d="m 10.746729,258.09816 -5.2974747,0.93602 1.8364043,-5.04598 z"
         inkscape:transform-center-y="-0.39102898"
         inkscape:transform-center-x="-0.19974242"
         style="opacity:1;fill:#ffc107;fill-opacity:1;stroke:none;stroke-width:4.14841413;stroke-linecap:round;stroke-linejoin:round;stroke-miterlimit:4;stroke-dasharray:none;stroke-opacity:1;paint-order:stroke fill markers" />
    </g>
    <text
       transform="scale(1.2686,0.78827053)"
       id="text5479"
       y="359.73123"
       x="4.9353185"
       style="font-style:normal;font-variant:normal;font-weight:normal;font-stretch:normal;font-size:16.81563377px;line-height:10.50976658px;font-family:Lato;-inkscape-font-specification:Lato;letter-spacing:0px;word-spacing:0px;fill:#1a1a1a;fill-opacity:1;stroke:none;stroke-width:2.11666679;stroke-miterlimit:4;stroke-dasharray:none;stroke-opacity:1"
       xml:space="preserve"><tspan
         style="font-style:normal;font-variant:normal;font-weight:normal;font-stretch:normal;font-family:'Bebas Neue';-inkscape-font-specification:'Bebas Neue';fill:#1a1a1a;fill-opacity:1;stroke:none;stroke-width:2.11666679;stroke-miterlimit:4;stroke-dasharray:none;stroke-opacity:1"
         y="359.73123"
         x="4.9353185"
         id="tspan5477"
         sodipodi:role="line">Backity</tspan></text>
  </g>
</svg>
