<?xml version="1.0" encoding="UTF-8" standalone="no"?>
<!-- Created with Inkscape (http://www.inkscape.org/) -->

<svg
   xmlns:dc="http://purl.org/dc/elements/1.1/"
   xmlns:cc="http://creativecommons.org/ns#"
   xmlns:rdf="http://www.w3.org/1999/02/22-rdf-syntax-ns#"
   xmlns:svg="http://www.w3.org/2000/svg"
   xmlns="http://www.w3.org/2000/svg"
   xmlns:sodipodi="http://sodipodi.sourceforge.net/DTD/sodipodi-0.dtd"
   xmlns:inkscape="http://www.inkscape.org/namespaces/inkscape"
   width="256"
   height="192"
   viewBox="0 0 67.731409 50.800002"
   version="1.1"
   id="svg8"
   inkscape:version="0.92.0 r15299"
   sodipodi:docname="Logo_web_alt2.svg">
  <sodipodi:namedview
     id="base"
     pagecolor="#ffffff"
     bordercolor="#666666"
     borderopacity="1.0"
     inkscape:pageopacity="0.0"
     inkscape:pageshadow="2"
     inkscape:zoom="4"
     inkscape:cx="96.553943"
     inkscape:cy="107.19057"
     inkscape:document-units="mm"
     inkscape:current-layer="layer1"
     showgrid="false"
     units="px"
     inkscape:window-width="2560"
     inkscape:window-height="1377"
     inkscape:window-x="-8"
     inkscape:window-y="-8"
     inkscape:window-maximized="1"
     showguides="true"
     inkscape:guide-bbox="true"
     objecttolerance="20"
     guidetolerance="20"
     inkscape:snap-perpendicular="false"
     inkscape:snap-tangential="false"
     fit-margin-top="0"
     fit-margin-left="0"
     fit-margin-right="0"
     fit-margin-bottom="0"
     viewbox-width="67.73"
     inkscape:pagecheckerboard="true" />
  <defs
     id="defs2">
    <inkscape:path-effect
       is_visible="true"
       id="path-effect4678"
       effect="spiro" />
    <inkscape:path-effect
       is_visible="true"
       id="path-effect4553"
       effect="spiro" />
    <inkscape:path-effect
       effect="spiro"
       id="path-effect4547"
       is_visible="true" />
  </defs>
  <metadata
     id="metadata5">
    <rdf:RDF>
      <cc:Work
         rdf:about="">
        <dc:format>image/svg+xml</dc:format>
        <dc:type
           rdf:resource="http://purl.org/dc/dcmitype/StillImage" />
        <dc:title></dc:title>
      </cc:Work>
    </rdf:RDF>
  </metadata>
  <g
     id="layer1"
     inkscape:groupmode="layer"
     inkscape:label="Layer 1"
     transform="translate(-0.00137307,-237.05562)">
    <path
       sodipodi:nodetypes="sccccccccccccsccsssssssssssssssssssssssssssssssssss"
       inkscape:connector-curvature="0"
       id="path5457"
       d="m 23.276016,241.23967 c -0.969896,0 -6.901202,0.0372 -7.684612,0.0746 -0.783402,0.0372 -4.886706,1.15486 -4.774795,1.97447 0.01939,0.14215 0.06094,0.27845 0.114905,0.40707 -4.4882625,2.24792 -7.3225073,6.83239 -7.3239638,11.84681 7.14e-5,7.32191 5.943726,13.25746 13.2754738,13.25732 2.830125,-0.005 5.584446,-0.91402 7.861016,-2.59311 h 18.245659 c 2.276677,1.67918 5.031159,2.58775 7.861427,2.59311 7.331748,1.4e-4 13.275384,-5.93541 13.275472,-13.25736 -0.0071,-5.01147 -2.84166,-9.59105 -7.328091,-11.8361 0.05629,-0.13166 0.09924,-0.27176 0.119176,-0.41779 0.111876,-0.8196 -3.991419,-1.93719 -4.774793,-1.97447 -0.783411,-0.0373 -6.714717,-0.0746 -7.684611,-0.0746 -0.88084,0 -0.661956,0.88439 -0.612877,1.05369 H 23.88889 c 0.04897,-0.16937 0.267963,-1.05369 -0.612874,-1.05369 z m 28.366928,7.29445 c 1.40389,0 2.559464,1.15364 2.559464,2.55567 0,1.40199 -1.155574,2.5577 -2.559464,2.5577 -1.40389,0 -2.560732,-1.15571 -2.560732,-2.5577 0,-1.40203 1.156842,-2.55567 2.560732,-2.55567 z m -5.592121,4.42557 c 1.40389,0 2.559071,1.15405 2.559071,2.55608 0,1.40203 -1.155181,2.5577 -2.559071,2.5577 -1.403871,0 -2.561124,-1.15567 -2.561124,-2.5577 0,-1.40203 1.157253,-2.55608 2.561124,-2.55608 z m 11.288909,0 c 1.403889,0 2.560733,1.15405 2.560733,2.55608 0,1.40203 -1.156844,2.5577 -2.560733,2.5577 -1.403899,0 -2.559464,-1.15567 -2.559464,-2.5577 0,-1.40203 1.155565,-2.55608 2.559464,-2.55608 z m -28.838426,3.11914 h 3.271278 c 0.818346,0 1.503123,0.68386 1.503123,1.50112 0,0.81729 -0.684777,1.50153 -1.503123,1.50153 h -3.271278 c -0.818348,0 -1.503534,-0.68424 -1.503534,-1.50153 0,-0.81726 0.685186,-1.50112 1.503534,-1.50112 z m 7.461216,0 h 3.270036 c 0.818364,0 1.504777,0.68386 1.504777,1.50112 0,0.81729 -0.686413,1.50153 -1.504777,1.50153 h -3.270036 c -0.818337,0 -1.504748,-0.68424 -1.504748,-1.50153 0,-0.81726 0.686411,-1.50112 1.504748,-1.50112 z m 15.680422,1.3583 c 1.40389,0 2.559464,1.15529 2.559464,2.55732 0,1.402 -1.155574,2.55605 -2.559464,2.55605 -1.40389,0 -2.560732,-1.15405 -2.560732,-2.55605 0,-1.40203 1.156842,-2.55732 2.560732,-2.55732 z"
       style="opacity:1;fill:#1a1a1a;fill-opacity:1;stroke:none;stroke-width:2.11666679;stroke-linecap:round;stroke-linejoin:round;stroke-miterlimit:4;stroke-dasharray:none;stroke-opacity:1;paint-order:stroke fill markers" />
    <ellipse
       style="opacity:1;fill:#1a1a1a;fill-opacity:1;stroke:none;stroke-width:2.11666656;stroke-linecap:round;stroke-linejoin:round;stroke-miterlimit:4;stroke-dasharray:none;stroke-opacity:1;paint-order:stroke fill markers"
       id="ellipse5459"
       cx="51.642574"
       cy="251.09048"
       rx="1.715981"
       ry="1.7136935" />
    <ellipse
       cy="255.51605"
       cx="46.05051"
       id="ellipse5461"
       style="opacity:1;fill:#1a1a1a;fill-opacity:1;stroke:none;stroke-width:2.11666656;stroke-linecap:round;stroke-linejoin:round;stroke-miterlimit:4;stroke-dasharray:none;stroke-opacity:1;paint-order:stroke fill markers"
       rx="1.715981"
       ry="1.7136935" />
    <ellipse
       style="opacity:1;fill:#1a1a1a;fill-opacity:1;stroke:none;stroke-width:2.11666656;stroke-linecap:round;stroke-linejoin:round;stroke-miterlimit:4;stroke-dasharray:none;stroke-opacity:1;paint-order:stroke fill markers"
       id="ellipse5463"
       cx="57.340221"
       cy="255.51605"
       rx="1.715981"
       ry="1.7136935" />
    <ellipse
       cy="259.99432"
       cx="51.642574"
       id="ellipse5465"
       style="opacity:1;fill:#1a1a1a;fill-opacity:1;stroke:none;stroke-width:2.11666656;stroke-linecap:round;stroke-linejoin:round;stroke-miterlimit:4;stroke-dasharray:none;stroke-opacity:1;paint-order:stroke fill markers"
       rx="1.715981"
       ry="1.7136935" />
    <rect
       style="opacity:1;fill:#1a1a1a;fill-opacity:1;stroke:none;stroke-width:2.11666632;stroke-linecap:round;stroke-linejoin:round;stroke-miterlimit:4;stroke-dasharray:none;stroke-opacity:1;paint-order:stroke fill markers"
       id="rect5467"
       width="4.5897479"
       height="1.3171352"
       x="27.841843"
       y="256.92191"
       ry="0.65856761" />
    <rect
       ry="0.65856761"
       y="256.92191"
       x="35.302616"
       height="1.3171352"
       width="4.5897479"
       id="rect5469"
       style="opacity:1;fill:#1a1a1a;fill-opacity:1;stroke:none;stroke-width:2.11666632;stroke-linecap:round;stroke-linejoin:round;stroke-miterlimit:4;stroke-dasharray:none;stroke-opacity:1;paint-order:stroke fill markers" />
    <path
       style="color:#000000;font-style:normal;font-variant:normal;font-weight:normal;font-stretch:normal;font-size:medium;line-height:normal;font-family:sans-serif;font-variant-ligatures:normal;font-variant-position:normal;font-variant-caps:normal;font-variant-numeric:normal;font-variant-alternates:normal;font-feature-settings:normal;text-indent:0;text-align:start;text-decoration:none;text-decoration-line:none;text-decoration-style:solid;text-decoration-color:#000000;letter-spacing:normal;word-spacing:normal;text-transform:none;writing-mode:lr-tb;direction:ltr;text-orientation:mixed;dominant-baseline:auto;baseline-shift:baseline;text-anchor:start;white-space:normal;shape-padding:0;clip-rule:nonzero;display:inline;overflow:visible;visibility:visible;opacity:1;isolation:auto;mix-blend-mode:normal;color-interpolation:sRGB;color-interpolation-filters:linearRGB;solid-color:#000000;solid-opacity:1;vector-effect:none;fill:#ffc107;fill-opacity:1;fill-rule:nonzero;stroke:none;stroke-width:9.99999905;stroke-linecap:butt;stroke-linejoin:miter;stroke-miterlimit:4;stroke-dasharray:none;stroke-dashoffset:0;stroke-opacity:1;color-rendering:auto;image-rendering:auto;shape-rendering:auto;text-rendering:auto;enable-background:accumulate"
       d="m 62.125,42.269531 c -0.472691,-0.01014 -0.945536,-0.0078 -1.417969,0.0059 -3.779395,0.109606 -7.53214,0.979906 -10.992187,2.603515 -6.920028,3.247257 -12.277112,9.326286 -14.601563,16.59375 l 7.601563,2.427735 c 1.623137,-5.074885 5.550037,-9.541042 10.390625,-11.8125 4.840592,-2.271383 10.796969,-2.447092 15.761719,-0.458985 4.964881,1.988069 9.14674,6.222437 11.0625,11.195313 1.915751,4.972913 1.651017,10.897741 -0.701172,15.68164 -1.66091,3.377915 -4.368826,6.310382 -7.613282,8.238282 C 68.370846,88.672153 64.50044,89.64982 60.724609,89.5 56.948918,89.350709 53.165973,88.06355 50.085938,85.884766 48.120947,84.494726 46.412039,82.714338 45.070312,80.701172 L 49.925781,79.84375 38.238281,65.982422 32.037109,83 l 4.6875,-0.828125 c 2.028329,4.053756 5.033996,7.588194 8.75,10.216797 4.365642,3.088176 9.583648,4.856214 14.931641,5.068359 5.347725,0.21241 10.691131,-1.136882 15.289062,-3.86914 4.597932,-2.732334 8.33659,-6.779221 10.69336,-11.572266 3.367536,-6.849033 3.725535,-14.93402 0.982422,-22.054687 C 84.627845,52.840194 78.936817,47.080221 71.839844,44.238281 68.73489,42.994982 65.433835,42.340534 62.125,42.269531 Z"
       id="path5471"
       inkscape:connector-curvature="0"
       transform="matrix(0.26458334,0,0,0.26458334,4.0957e-4,237.05562)" />
    <g
       aria-label="Backity"
       transform="scale(1.2686,0.78827053)"
       style="font-style:normal;font-variant:normal;font-weight:normal;font-stretch:normal;font-size:16.81563377px;line-height:10.50976658px;font-family:Lato;-inkscape-font-specification:Lato;letter-spacing:0px;word-spacing:0px;fill:#1a1a1a;fill-opacity:1;stroke:none;stroke-width:2.11666679;stroke-miterlimit:4;stroke-dasharray:none;stroke-opacity:1"
       id="text5479">
      <path
         d="M 8.399339,347.96029 H 5.6079438 v 11.77094 h 2.9091047 c 1.8497195,0 2.8082105,-0.97531 2.8082105,-2.79139 v -0.95849 c 0,-1.24436 -0.386759,-2.11877 -1.3788817,-2.50553 v -0.0336 c 0.8239657,-0.38675 1.1939097,-1.14346 1.1939097,-2.35418 v -0.42039 c 0,-1.81609 -0.823966,-2.70732 -2.740948,-2.70732 z m -0.1177094,6.47402 c 0.8407817,0 1.19391,0.33631 1.19391,1.42933 v 1.02575 c 0,0.87441 -0.3363127,1.16028 -0.9584911,1.16028 h -1.059385 v -3.61536 z m 0.067263,-4.79246 c 0.6558097,0 0.9416755,0.36995 0.9416755,1.21073 v 0.65581 c 0,0.94167 -0.4203908,1.24435 -1.1098318,1.24435 H 7.4576635 v -3.11089 z"
         style="font-style:normal;font-variant:normal;font-weight:normal;font-stretch:normal;font-family:'Bebas Neue';-inkscape-font-specification:'Bebas Neue';fill:#1a1a1a;fill-opacity:1;stroke:none;stroke-width:2.11666679;stroke-miterlimit:4;stroke-dasharray:none;stroke-opacity:1"
         inkscape:connector-curvature="0"
         id="path5520" />
      <path
         d="m 16.54231,347.96029 h -2.707317 l -1.883351,11.77094 h 1.698379 l 0.319497,-2.13558 h 2.27011 l 0.319497,2.13558 h 1.866536 z m -1.46296,2.08514 h 0.03363 l 0.874413,5.95273 h -1.782457 z"
         style="font-style:normal;font-variant:normal;font-weight:normal;font-stretch:normal;font-family:'Bebas Neue';-inkscape-font-specification:'Bebas Neue';fill:#1a1a1a;fill-opacity:1;stroke:none;stroke-width:2.11666679;stroke-miterlimit:4;stroke-dasharray:none;stroke-opacity:1"
         inkscape:connector-curvature="0"
         id="path5522" />
      <path
         d="m 22.853165,355.34235 v 1.68156 c 0,0.84079 -0.369944,1.14347 -0.958491,1.14347 -0.588547,0 -0.958491,-0.30268 -0.958491,-1.14347 v -6.3563 c 0,-0.84079 0.369944,-1.16028 0.958491,-1.16028 0.588547,0 0.958491,0.31949 0.958491,1.16028 v 1.26117 h 1.748826 v -1.14347 c 0,-1.88335 -0.941676,-2.95955 -2.757764,-2.95955 -1.816088,0 -2.757764,1.0762 -2.757764,2.95955 v 6.1209 c 0,1.88335 0.941676,2.95955 2.757764,2.95955 1.816088,0 2.757764,-1.0762 2.757764,-2.95955 v -1.56386 z"
         style="font-style:normal;font-variant:normal;font-weight:normal;font-stretch:normal;font-family:'Bebas Neue';-inkscape-font-specification:'Bebas Neue';fill:#1a1a1a;fill-opacity:1;stroke:none;stroke-width:2.11666679;stroke-miterlimit:4;stroke-dasharray:none;stroke-opacity:1"
         inkscape:connector-curvature="0"
         id="path5524" />
      <path
         d="m 29.961448,359.73123 h 1.900167 l -2.572792,-6.52446 2.572792,-5.24648 h -1.84972 l -2.38782,5.09514 h -0.03363 v -5.09514 h -1.84972 v 11.77094 h 1.84972 v -3.61536 l 0.571731,-1.0762 z"
         style="font-style:normal;font-variant:normal;font-weight:normal;font-stretch:normal;font-family:'Bebas Neue';-inkscape-font-specification:'Bebas Neue';fill:#1a1a1a;fill-opacity:1;stroke:none;stroke-width:2.11666679;stroke-miterlimit:4;stroke-dasharray:none;stroke-opacity:1"
         inkscape:connector-curvature="0"
         id="path5526" />
      <path
         d="m 32.703449,359.73123 h 1.849719 v -11.77094 h -1.849719 z"
         style="font-style:normal;font-variant:normal;font-weight:normal;font-stretch:normal;font-family:'Bebas Neue';-inkscape-font-specification:'Bebas Neue';fill:#1a1a1a;fill-opacity:1;stroke:none;stroke-width:2.11666679;stroke-miterlimit:4;stroke-dasharray:none;stroke-opacity:1"
         inkscape:connector-curvature="0"
         id="path5528" />
      <path
         d="m 35.351122,349.64185 h 1.933798 v 10.08938 h 1.84972 v -10.08938 h 1.933798 v -1.68156 h -5.717316 z"
         style="font-style:normal;font-variant:normal;font-weight:normal;font-stretch:normal;font-family:'Bebas Neue';-inkscape-font-specification:'Bebas Neue';fill:#1a1a1a;fill-opacity:1;stroke:none;stroke-width:2.11666679;stroke-miterlimit:4;stroke-dasharray:none;stroke-opacity:1"
         inkscape:connector-curvature="0"
         id="path5530" />
      <path
         d="m 43.598663,359.73123 h 1.84972 V 355.83 l 2.337373,-7.86971 h -1.765642 l -1.395697,5.36419 h -0.03363 l -1.395697,-5.36419 h -1.9338 l 2.337373,7.86971 z"
         style="font-style:normal;font-variant:normal;font-weight:normal;font-stretch:normal;font-family:'Bebas Neue';-inkscape-font-specification:'Bebas Neue';fill:#1a1a1a;fill-opacity:1;stroke:none;stroke-width:2.11666679;stroke-miterlimit:4;stroke-dasharray:none;stroke-opacity:1"
         inkscape:connector-curvature="0"
         id="path5532" />
    </g>
  </g>
</svg>
