<?xml version="1.0" encoding="UTF-8" standalone="no"?>
<!-- Created with Inkscape (http://www.inkscape.org/) -->

<svg
        xmlns:dc="http://purl.org/dc/elements/1.1/"
        xmlns:cc="http://creativecommons.org/ns#"
        xmlns:rdf="http://www.w3.org/1999/02/22-rdf-syntax-ns#"
        xmlns="http://www.w3.org/2000/svg"
        xmlns:sodipodi="http://sodipodi.sourceforge.net/DTD/sodipodi-0.dtd"
        xmlns:inkscape="http://www.inkscape.org/namespaces/inkscape"
        width="35.2211mm"
        height="35.2211mm"
        viewBox="0 0 35.221099 35.2211"
        version="1.1"
        id="svg6729"
        sodipodi:docname="docs_favicon.svg"
        inkscape:version="0.92.0 r15299">
  <defs
     id="defs6723">
    <pattern
       y="0"
       x="0"
       height="6"
       width="6"
       patternUnits="userSpaceOnUse"
       id="EMFhbasepattern" />
  </defs>
  <sodipodi:namedview
     id="base"
     pagecolor="#1a1a1a"
     bordercolor="#666666"
     borderopacity="1.0"
     inkscape:pageopacity="0"
     inkscape:pageshadow="2"
     inkscape:zoom="1.4"
     inkscape:cx="22.598603"
     inkscape:cy="73.095406"
     inkscape:document-units="mm"
     inkscape:current-layer="layer1"
     showgrid="false"
     fit-margin-top="0"
     fit-margin-left="0"
     fit-margin-right="0"
     fit-margin-bottom="0"
     inkscape:window-width="2560"
     inkscape:window-height="1369"
     inkscape:window-x="-8"
     inkscape:window-y="-8"
     inkscape:window-maximized="1" />
  <metadata
     id="metadata6726">
    <rdf:RDF>
      <cc:Work
         rdf:about="">
        <dc:format>image/svg+xml</dc:format>
        <dc:type
           rdf:resource="http://purl.org/dc/dcmitype/StillImage" />
        <dc:title></dc:title>
      </cc:Work>
    </rdf:RDF>
  </metadata>
  <g
     inkscape:label="Layer 1"
     inkscape:groupmode="layer"
     id="layer1"
     transform="translate(-32.817908,-98.149798)">
    <g
       id="g4517"
       transform="translate(3.4739446)">
      <path
         inkscape:connector-curvature="0"
         id="path4502"
         transform="matrix(0.26458333,0,0,0.26458333,32.817908,42.020404)"
         d="m 103.4082,212.14258 c -5.892356,0 -41.926132,0.22647 -46.685544,0.45508 -4.75937,0.22681 -29.689585,7.02569 -29.009765,12.01172 0.225864,1.656 0.930224,3.18196 1.765625,4.48828 A 62.90894,62.90894 0 0 0 0,282.35352 a 62.90894,62.90894 0 0 0 62.910156,62.9082 62.90894,62.90894 0 0 0 37.246094,-12.30274 h 6.70313 V 317.90234 H 94.78125 A 47.801405,47.801405 0 0 1 62.910156,330.1543 47.801405,47.801405 0 0 1 15.107422,282.35352 47.801405,47.801405 0 0 1 62.640625,234.56055 v -0.0195 h 44.218755 v -15.05664 -5.76563 c -0.56647,-0.91174 -1.61133,-1.57617 -3.45118,-1.57617 z"
         style="opacity:1;fill:#ffc107;fill-opacity:1;stroke:none;stroke-width:15.00000095;stroke-linecap:round;stroke-linejoin:round;stroke-miterlimit:4;stroke-dasharray:none;stroke-opacity:1;paint-order:stroke fill markers" />
      <g
         style="stroke-width:1.10714281"
         id="g4524"
         transform="matrix(0.9032258,0,0,0.9032258,-129.59732,-56.515556)">
        <path
           inkscape:connector-curvature="0"
           style="color:#000000;font-style:normal;font-variant:normal;font-weight:normal;font-stretch:normal;font-size:medium;line-height:normal;font-family:sans-serif;font-variant-ligatures:normal;font-variant-position:normal;font-variant-caps:normal;font-variant-numeric:normal;font-variant-alternates:normal;font-feature-settings:normal;text-indent:0;text-align:start;text-decoration:none;text-decoration-line:none;text-decoration-style:solid;text-decoration-color:#000000;letter-spacing:normal;word-spacing:normal;text-transform:none;writing-mode:lr-tb;direction:ltr;text-orientation:mixed;dominant-baseline:auto;baseline-shift:baseline;text-anchor:start;white-space:normal;shape-padding:0;clip-rule:nonzero;display:inline;overflow:visible;visibility:visible;opacity:1;isolation:auto;mix-blend-mode:normal;color-interpolation:sRGB;color-interpolation-filters:linearRGB;solid-color:#000000;solid-opacity:1;vector-effect:none;fill:#ffc107;fill-opacity:1;fill-rule:nonzero;stroke:none;stroke-width:11.33858204;stroke-linecap:butt;stroke-linejoin:miter;stroke-miterlimit:4;stroke-dasharray:none;stroke-dashoffset:0;stroke-opacity:1;color-rendering:auto;image-rendering:auto;shape-rendering:auto;text-rendering:auto;enable-background:accumulate"
           d="m 62.888672,38.417969 c -0.543099,-0.01177 -1.086105,-0.0099 -1.628906,0.0059 -4.342414,0.125627 -8.656699,1.126935 -12.642578,3 -7.97159,3.7462 -14.109044,10.73017 -16.78711,19.115234 l 10.800781,3.455079 c 1.681281,-5.264165 5.793361,-9.951695 10.808594,-12.308594 5.015301,-2.356831 11.256254,-2.537481 16.400391,-0.474609 5.144068,2.062871 9.517564,6.503634 11.501953,11.662109 1.984354,5.158406 1.709843,11.373481 -0.726563,16.335937 -1.723986,3.50908 -4.553367,6.570782 -7.919922,8.574219 -3.367954,2.004291 -7.40813,3.028817 -11.328124,2.873047 -3.91979,-0.155668 -7.871094,-1.500591 -11.06836,-3.765625 -0.880199,-0.623543 -1.706379,-1.330819 -2.480469,-2.09375 l 7.421875,-5.550781 -24.833984,-7.326172 0.888672,25.236328 7.363281,-5.507812 c 1.525255,1.668463 3.228423,3.180213 5.085938,4.496093 5.024791,3.559706 11.020452,5.595418 17.175781,5.839848 6.152734,0.24306 12.283904,-1.31266 17.574219,-4.460941 C 83.786333,94.374074 88.076244,89.72845 90.789062,84.203166 94.66874,76.30104 95.084259,67.014536 91.923828,58.798828 88.763329,50.583155 82.23604,43.96992 74.060547,40.691406 70.483768,39.257057 66.690363,38.500361 62.888672,38.417969 Z"
           transform="matrix(0.29293155,0,0,0.29293155,179.81686,171.23672)"
           id="path4522" />
      </g>
    </g>
  </g>
</svg>
