<?xml version="1.0" encoding="UTF-8" standalone="no"?>
<!-- Created with Inkscape (http://www.inkscape.org/) -->

<svg
   xmlns:dc="http://purl.org/dc/elements/1.1/"
   xmlns:cc="http://creativecommons.org/ns#"
   xmlns:rdf="http://www.w3.org/1999/02/22-rdf-syntax-ns#"
   xmlns:svg="http://www.w3.org/2000/svg"
   xmlns="http://www.w3.org/2000/svg"
   xmlns:sodipodi="http://sodipodi.sourceforge.net/DTD/sodipodi-0.dtd"
   xmlns:inkscape="http://www.inkscape.org/namespaces/inkscape"
   width="32.650565mm"
   height="15.9823495mm"
   viewBox="0 0 130.60226 63.929398"
   version="1.1"
   id="svg8"
   inkscape:version="0.92.0 r15299"
   sodipodi:docname="Logo_web.svg">
  <defs
     id="defs2" />
  <sodipodi:namedview
     id="base"
     pagecolor="#ffffff"
     bordercolor="#666666"
     borderopacity="1.0"
     inkscape:pageopacity="0.0"
     inkscape:pageshadow="2"
     inkscape:zoom="2"
     inkscape:cx="257.63616"
     inkscape:cy="161.22536"
     inkscape:document-units="mm"
     inkscape:current-layer="layer1"
     showgrid="false"
     showguides="true"
     inkscape:guide-bbox="true"
     inkscape:window-width="2560"
     inkscape:window-height="1377"
     inkscape:window-x="-8"
     inkscape:window-y="-8"
     inkscape:window-maximized="1"
     fit-margin-top="0"
     fit-margin-left="0"
     fit-margin-right="0"
     fit-margin-bottom="0" />
  <metadata
     id="metadata5">
    <rdf:RDF>
      <cc:Work
         rdf:about="">
        <dc:format>image/svg+xml</dc:format>
        <dc:type
           rdf:resource="http://purl.org/dc/dcmitype/StillImage" />
        <dc:title />
      </cc:Work>
    </rdf:RDF>
  </metadata>
  <g
     inkscape:label="Layer 1"
     inkscape:groupmode="layer"
     id="layer1"
     transform="translate(-44.457777,-89.300348)">
    <g
       aria-label="Code"
       transform="rotate(-90)"
       style="font-style:normal;font-variant:normal;font-weight:normal;font-stretch:normal;font-size:16.85047531px;line-height:10.53154659px;font-family:'Bebas Neue';-inkscape-font-specification:'Bebas Neue';letter-spacing:0px;word-spacing:0px;fill:#f00080;fill-opacity:1;stroke:none;stroke-width:0.42126194"
       id="text5440-9">
      <path
         d="m -124.65755,62.527975 v 1.685048 c 0,0.842523 -0.37071,1.145832 -0.96048,1.145832 -0.58976,0 -0.96047,-0.303309 -0.96047,-1.145832 v -6.36948 c 0,-0.842524 0.37071,-1.162683 0.96047,-1.162683 0.58977,0 0.96048,0.320159 0.96048,1.162683 v 1.263786 h 1.75245 v -1.145833 c 0,-1.887253 -0.94363,-2.965683 -2.76348,-2.965683 -1.81985,0 -2.76348,1.07843 -2.76348,2.965683 v 6.133573 c 0,1.887253 0.94363,2.965684 2.76348,2.965684 1.81985,0 2.76348,-1.078431 2.76348,-2.965684 v -1.567094 z"
         style="fill:#f00080;fill-opacity:1;stroke-width:0.42126194"
         id="path5712"
         inkscape:connector-curvature="0" />
      <path
         d="m -120.06211,57.843543 c 0,-0.842524 0.37071,-1.162683 0.96048,-1.162683 0.58976,0 0.96047,0.320159 0.96047,1.162683 v 6.36948 c 0,0.842523 -0.37071,1.162682 -0.96047,1.162682 -0.58977,0 -0.96048,-0.320159 -0.96048,-1.162682 z m -1.85355,6.251526 c 0,1.887253 0.99418,2.965684 2.81403,2.965684 1.81985,0 2.81403,-1.078431 2.81403,-2.965684 v -6.133573 c 0,-1.887253 -0.99418,-2.965683 -2.81403,-2.965683 -1.81985,0 -2.81403,1.07843 -2.81403,2.965683 z"
         style="fill:#f00080;fill-opacity:1;stroke-width:0.42126194"
         id="path5714"
         inkscape:connector-curvature="0" />
      <path
         d="m -115.08306,66.925949 h 2.93198 c 1.85356,0 2.76348,-1.027879 2.76348,-2.915132 v -5.965068 c 0,-1.887254 -0.90992,-2.915133 -2.76348,-2.915133 h -2.93198 z m 2.89828,-10.110285 c 0.58977,0 0.94363,0.303308 0.94363,1.145832 v 6.133573 c 0,0.842524 -0.35386,1.145833 -0.94363,1.145833 h -1.04473 v -8.425238 z"
         style="fill:#f00080;fill-opacity:1;stroke-width:0.42126194"
         id="path5716"
         inkscape:connector-curvature="0" />
      <path
         d="m -106.35109,56.815664 h 3.20159 v -1.685048 h -5.05514 v 11.795333 h 5.05514 v -1.685047 h -3.20159 v -3.454348 h 2.54442 v -1.685047 h -2.54442 z"
         style="fill:#f00080;fill-opacity:1;stroke-width:0.42126194"
         id="path5718"
         inkscape:connector-curvature="0" />
    </g>
    <g
       aria-label="Soapbox"
       style="font-style:normal;font-variant:normal;font-weight:normal;font-stretch:normal;font-size:35.36649704px;line-height:22.10406113px;font-family:'Bebas Neue';-inkscape-font-specification:'Bebas Neue';letter-spacing:0px;word-spacing:0px;fill:#f00080;fill-opacity:1;stroke:none;stroke-width:0.88416243"
       id="text5446-4">
      <path
         d="m 69.205402,109.37213 c 0,2.82932 1.025629,4.88057 4.279346,7.74526 2.546388,2.22809 3.324451,3.57202 3.324451,5.37571 0,1.76832 -0.778063,2.40492 -2.01589,2.40492 -1.237828,0 -2.01589,-0.6366 -2.01589,-2.40492 v -1.76833 h -3.678116 v 1.52076 c 0,3.96105 1.980524,6.22451 5.800105,6.22451 3.819582,0 5.800106,-2.26346 5.800106,-6.22451 0,-2.82932 -1.025629,-4.88057 -4.279346,-7.74526 -2.546388,-2.22809 -3.324451,-3.57202 -3.324451,-5.37571 0,-1.76832 0.70733,-2.44029 1.945157,-2.44029 1.237828,0 1.945158,0.67197 1.945158,2.44029 v 1.02563 h 3.678115 v -0.77806 c 0,-3.96105 -1.945157,-6.22451 -5.729372,-6.22451 -3.784215,0 -5.729373,2.26346 -5.729373,6.22451 z"
         style="fill:#f00080;fill-opacity:1;stroke-width:0.88416243"
         id="path5697"
         inkscape:connector-curvature="0" />
      <path
         d="m 86.465911,109.12456 c 0,-1.76832 0.778063,-2.44029 2.01589,-2.44029 1.237828,0 2.01589,0.67197 2.01589,2.44029 v 13.36854 c 0,1.76832 -0.778062,2.44029 -2.01589,2.44029 -1.237827,0 -2.01589,-0.67197 -2.01589,-2.44029 z m -3.890315,13.12097 c 0,3.96105 2.086623,6.22451 5.906205,6.22451 3.819582,0 5.906205,-2.26346 5.906205,-6.22451 v -12.8734 c 0,-3.96105 -2.086623,-6.22451 -5.906205,-6.22451 -3.819582,0 -5.906205,2.26346 -5.906205,6.22451 z"
         style="fill:#f00080;fill-opacity:1;stroke-width:0.88416243"
         id="path5699"
         inkscape:connector-curvature="0" />
      <path
         d="m 105.47651,103.43056 h -5.694008 l -3.961048,24.75654 h 3.572016 l 0.67196,-4.49154 h 4.77448 l 0.67196,4.49154 h 3.92569 z m -3.07689,4.38544 h 0.0707 l 1.83905,12.51974 h -3.74885 z"
         style="fill:#f00080;fill-opacity:1;stroke-width:0.88416243"
         id="path5701"
         inkscape:connector-curvature="0" />
      <path
         d="m 116.9441,103.43056 h -5.72938 v 24.75654 h 3.89032 v -9.30139 h 1.83906 c 3.89031,0 5.8001,-2.15735 5.8001,-6.1184 v -3.21835 c 0,-3.96105 -1.90979,-6.1184 -5.8001,-6.1184 z m 0,3.53665 c 1.23782,0 1.90979,0.56586 1.90979,2.33418 v 3.71349 c 0,1.76832 -0.67197,2.33418 -1.90979,2.33418 h -1.83906 v -8.38185 z"
         style="fill:#f00080;fill-opacity:1;stroke-width:0.88416243"
         id="path5703"
         inkscape:connector-curvature="0" />
      <path
         d="m 130.41707,103.43056 h -5.87084 v 24.75654 h 6.11841 c 3.89031,0 5.9062,-2.05125 5.9062,-5.87084 v -2.01589 c 0,-2.61712 -0.81343,-4.45617 -2.90005,-5.2696 v -0.0707 c 1.73296,-0.81343 2.51102,-2.40492 2.51102,-4.95131 v -0.88416 c 0,-3.81958 -1.73296,-5.694 -5.76474,-5.694 z m -0.24756,13.6161 c 1.76832,0 2.51102,0.70733 2.51102,3.00615 v 2.15736 c 0,1.83905 -0.70733,2.44028 -2.01589,2.44028 h -2.22809 v -7.60379 z m 0.14146,-10.07945 c 1.3793,0 1.98053,0.77806 1.98053,2.54638 v 1.3793 c 0,1.98052 -0.88417,2.61712 -2.33419,2.61712 h -1.52076 v -6.5428 z"
         style="fill:#f00080;fill-opacity:1;stroke-width:0.88416243"
         id="path5705"
         inkscape:connector-curvature="0" />
      <path
         d="m 142.48589,109.12456 c 0,-1.76832 0.77806,-2.44029 2.01589,-2.44029 1.23783,0 2.01589,0.67197 2.01589,2.44029 v 13.36854 c 0,1.76832 -0.77806,2.44029 -2.01589,2.44029 -1.23783,0 -2.01589,-0.67197 -2.01589,-2.44029 z m -3.89031,13.12097 c 0,3.96105 2.08662,6.22451 5.9062,6.22451 3.81958,0 5.90621,-2.26346 5.90621,-6.22451 v -12.8734 c 0,-3.96105 -2.08663,-6.22451 -5.90621,-6.22451 -3.81958,0 -5.9062,2.26346 -5.9062,6.22451 z"
         style="fill:#f00080;fill-opacity:1;stroke-width:0.88416243"
         id="path5707"
         inkscape:connector-curvature="0" />
      <path
         d="m 161.75565,103.43056 -2.97078,9.12455 h -0.0707 l -2.90005,-9.12455 h -4.03178 l 4.06715,12.0246 -4.35008,12.73194 h 3.64275 l 3.18298,-9.79652 h 0.0707 l 3.14761,9.79652 h 4.10252 l -4.35008,-12.73194 4.06715,-12.0246 z"
         style="fill:#f00080;fill-opacity:1;stroke-width:0.88416243"
         id="path5709"
         inkscape:connector-curvature="0" />
    </g>
    <rect
       style="fill:none;fill-opacity:1;stroke:#f00080;stroke-width:4.97707748;stroke-miterlimit:4;stroke-dasharray:none;stroke-opacity:1"
       id="rect5448-7"
       width="123.9558"
       height="42.046936"
       x="47.780975"
       y="94.640175"
       inkscape:export-xdpi="233.22284"
       inkscape:export-ydpi="233.22284" />
    <rect
       transform="matrix(0.99900827,-0.04452507,0.03782958,0.99928421,0,0)"
       y="99.417892"
       x="43.320042"
       height="42.041599"
       width="123.97431"
       id="rect5450-9"
       style="fill:none;fill-opacity:1;stroke:#f00080;stroke-width:4.9771328;stroke-miterlimit:4;stroke-dasharray:none;stroke-opacity:1"
       inkscape:export-xdpi="233.22284"
       inkscape:export-ydpi="233.22284" />
    <g
       aria-label="By Daniel Frąk"
       style="font-style:normal;font-variant:normal;font-weight:normal;font-stretch:normal;font-size:11.31346703px;line-height:7.07091713px;font-family:'Bebas Neue';-inkscape-font-specification:'Bebas Neue';letter-spacing:0px;word-spacing:0px;fill:#f00080;fill-opacity:1;stroke:none;stroke-width:0.28283668"
       id="text5489">
      <path
         d="m 117.40599,143.64724 h -1.87803 v 7.91943 h 1.95723 c 1.24448,0 1.88934,-0.65619 1.88934,-1.87804 v -0.64487 c 0,-0.83719 -0.26021,-1.42549 -0.9277,-1.6857 v -0.0226 c 0.55436,-0.26021 0.80326,-0.76932 0.80326,-1.58389 v -0.28283 c 0,-1.22186 -0.55436,-1.82147 -1.8441,-1.82147 z m -0.0792,4.35568 c 0.56567,0 0.80325,0.22627 0.80325,0.96165 v 0.69012 c 0,0.5883 -0.22627,0.78063 -0.64486,0.78063 h -0.71275 v -2.4324 z m 0.0452,-3.22433 c 0.44123,0 0.63355,0.24889 0.63355,0.81457 v 0.44122 c 0,0.63355 -0.28283,0.8372 -0.74668,0.8372 h -0.48648 v -2.09299 z"
         style="fill:#f00080;fill-opacity:1;stroke-width:0.28283668"
         id="path5672"
         inkscape:connector-curvature="0" />
      <path
         d="m 121.11257,151.56667 h 1.24448 v -2.62473 l 1.57257,-5.2947 h -1.18792 l -0.93901,3.60899 h -0.0226 l -0.93902,-3.60899 h -1.30105 l 1.57258,5.2947 z"
         style="fill:#f00080;fill-opacity:1;stroke-width:0.28283668"
         id="path5674"
         inkscape:connector-curvature="0" />
      <path
         d="m 126.17852,151.56667 h 1.96855 c 1.24448,0 1.85541,-0.69013 1.85541,-1.95723 v -4.00497 c 0,-1.26711 -0.61093,-1.95723 -1.85541,-1.95723 h -1.96855 z m 1.94592,-6.78808 c 0.39597,0 0.63355,0.20364 0.63355,0.76931 v 4.1181 c 0,0.56568 -0.23758,0.76932 -0.63355,0.76932 H 127.423 v -5.65673 z"
         style="fill:#f00080;fill-opacity:1;stroke-width:0.28283668"
         id="path5676"
         inkscape:connector-curvature="0" />
      <path
         d="m 133.53511,143.64724 h -1.82147 l -1.26711,7.91943 h 1.14266 l 0.21495,-1.43681 h 1.52732 l 0.21496,1.43681 h 1.25579 z m -0.98428,1.40287 h 0.0226 l 0.5883,4.00497 h -1.19923 z"
         style="fill:#f00080;fill-opacity:1;stroke-width:0.28283668"
         id="path5678"
         inkscape:connector-curvature="0" />
      <path
         d="m 138.02938,151.56667 h 1.27842 v -7.91943 h -1.10872 v 4.74034 h -0.0226 l -1.2558,-4.74034 h -1.56126 v 7.91943 h 1.12004 v -5.73593 h 0.0226 z"
         style="fill:#f00080;fill-opacity:1;stroke-width:0.28283668"
         id="path5680"
         inkscape:connector-curvature="0" />
      <path
         d="m 140.20987,151.56667 h 1.24449 v -7.91943 h -1.24449 z"
         style="fill:#f00080;fill-opacity:1;stroke-width:0.28283668"
         id="path5682"
         inkscape:connector-curvature="0" />
      <path
         d="m 143.59773,144.77859 h 2.14956 v -1.13135 h -3.39404 v 7.91943 h 3.39404 v -1.13135 h -2.14956 v -2.31926 h 1.70833 v -1.13135 h -1.70833 z"
         style="fill:#f00080;fill-opacity:1;stroke-width:0.28283668"
         id="path5684"
         inkscape:connector-curvature="0" />
      <path
         d="m 146.50741,151.56667 h 3.29222 v -1.13135 h -2.04774 v -6.78808 h -1.24448 z"
         style="fill:#f00080;fill-opacity:1;stroke-width:0.28283668"
         id="path5686"
         inkscape:connector-curvature="0" />
      <path
         d="m 153.34233,144.77859 h 2.04774 v -1.13135 h -3.29222 v 7.91943 h 1.24448 v -3.2696 h 1.60652 v -1.13134 h -1.60652 z"
         style="fill:#f00080;fill-opacity:1;stroke-width:0.28283668"
         id="path5688"
         inkscape:connector-curvature="0" />
      <path
         d="m 159.85606,151.56667 c -0.12445,-0.29415 -0.13576,-0.57699 -0.13576,-0.96165 v -1.22185 c 0,-0.82589 -0.20364,-1.41419 -0.82588,-1.6744 v -0.0226 c 0.55436,-0.26021 0.81457,-0.78063 0.81457,-1.5952 v -0.62224 c 0,-1.22186 -0.55436,-1.82147 -1.8441,-1.82147 h -1.87803 v 7.91943 h 1.24448 v -3.22434 h 0.42991 c 0.56567,0 0.81457,0.27152 0.81457,1.0069 v 1.24448 c 0,0.64487 0.0453,0.76931 0.11313,0.97296 z m -2.02511,-6.78808 c 0.44123,0 0.63355,0.24889 0.63355,0.81457 v 0.78062 c 0,0.63356 -0.28283,0.8372 -0.74668,0.8372 h -0.48648 v -2.43239 z"
         style="fill:#f00080;fill-opacity:1;stroke-width:0.28283668"
         id="path5690"
         inkscape:connector-curvature="0" />
      <path
         d="m 163.29924,143.64724 h -1.82146 l -1.26711,7.91943 h 1.14266 l 0.21495,-1.43681 h 1.52732 l 0.2489,1.57257 c -0.36203,0.23758 -0.53173,0.52042 -0.53173,0.82588 0,0.46385 0.38465,0.70144 0.98427,0.70144 0.31677,0 0.5091,-0.0226 0.76931,-0.12445 v -0.63356 c -0.12445,0.0339 -0.18101,0.0679 -0.40728,0.0679 -0.20364,0 -0.39597,-0.10182 -0.39597,-0.31677 0,-0.15839 0.0566,-0.4186 0.3394,-0.65618 h 0.46385 z m -0.98427,1.40287 h 0.0226 l 0.5883,4.00497 h -1.19923 z"
         style="fill:#f00080;fill-opacity:1;stroke-width:0.28283668"
         id="path5692"
         inkscape:connector-curvature="0" />
      <path
         d="m 167.97454,151.56667 h 1.27842 l -1.73096,-4.38963 1.73096,-3.5298 h -1.24448 l -1.60651,3.42798 h -0.0226 v -3.42798 h -1.24448 v 7.91943 h 1.24448 v -2.4324 l 0.38466,-0.72406 z"
         style="fill:#f00080;fill-opacity:1;stroke-width:0.28283668"
         id="path5694"
         inkscape:connector-curvature="0" />
    </g>
  </g>
</svg>
