<?xml version="1.0" encoding="UTF-8" standalone="no"?>
<!-- Created with Inkscape (http://www.inkscape.org/) -->

<svg
        xmlns:dc="http://purl.org/dc/elements/1.1/"
        xmlns:cc="http://creativecommons.org/ns#"
        xmlns:rdf="http://www.w3.org/1999/02/22-rdf-syntax-ns#"
        xmlns="http://www.w3.org/2000/svg"
        xmlns:sodipodi="http://sodipodi.sourceforge.net/DTD/sodipodi-0.dtd"
        xmlns:inkscape="http://www.inkscape.org/namespaces/inkscape"
        width="128.233mm"
        height="55.221001mm"
        viewBox="0 0 128.233 55.221001"
        version="1.1"
        id="svg6729"
        sodipodi:docname="logo.svg"
        inkscape:version="0.92.0 r15299">
  <defs
     id="defs6723" />
  <sodipodi:namedview
     id="base"
     pagecolor="#ffffff"
     bordercolor="#666666"
     borderopacity="1.0"
     inkscape:pageopacity="0"
     inkscape:pageshadow="2"
     inkscape:zoom="0.98994949"
     inkscape:cx="273.51827"
     inkscape:cy="133.91212"
     inkscape:document-units="mm"
     inkscape:current-layer="layer1"
     showgrid="false"
     fit-margin-top="0"
     fit-margin-left="0"
     fit-margin-right="0"
     fit-margin-bottom="0"
     inkscape:window-width="2560"
     inkscape:window-height="1369"
     inkscape:window-x="-8"
     inkscape:window-y="-8"
     inkscape:window-maximized="1" />
  <metadata
     id="metadata6726">
    <rdf:RDF>
      <cc:Work
         rdf:about="">
        <dc:format>image/svg+xml</dc:format>
        <dc:type
           rdf:resource="http://purl.org/dc/dcmitype/StillImage" />
        <dc:title></dc:title>
      </cc:Work>
    </rdf:RDF>
  </metadata>
  <g
     inkscape:label="Layer 1"
     inkscape:groupmode="layer"
     id="layer1"
     transform="translate(-22.817907,-32.0205)">
    <rect
       style="opacity:1;fill:#1a1a1a;fill-opacity:1;stroke:none;stroke-width:4.99999952;stroke-linecap:round;stroke-linejoin:round;stroke-miterlimit:4;stroke-dasharray:none;stroke-opacity:1;paint-order:stroke fill markers"
       id="rect5662"
       width="128.233"
       height="55.221001"
       x="22.817907"
       y="32.0205"
       rx="10"
       ry="10" />
    <path
       inkscape:connector-curvature="0"
       style="opacity:1;fill:#ffc107;fill-opacity:1;stroke:none;stroke-width:3.96875024;stroke-linecap:round;stroke-linejoin:round;stroke-miterlimit:4;stroke-dasharray:none;stroke-opacity:1;paint-order:stroke fill markers"
       d="m 60.177997,42.020404 c -1.55902,0 -11.092958,0.0599 -12.352219,0.120386 -1.25925,0.06001 -7.85537,1.858909 -7.675501,3.178122 0.05976,0.43815 0.246123,0.841878 0.467156,1.187503 a 16.644657,16.644657 0 0 0 -7.799525,14.090625 16.644657,16.644657 0 0 0 16.64498,16.64446 16.644657,16.644657 0 0 0 9.854694,-3.25509 h 22.878707 a 16.644657,16.644657 0 0 0 9.856247,3.25509 16.644657,16.644657 0 0 0 13.710794,-7.23884 H 57.895447 A 12.647455,12.647455 0 0 1 49.462888,73.24433 12.647455,12.647455 0 0 1 36.81508,60.59704 12.647455,12.647455 0 0 1 49.391575,47.951807 v -0.005 h 53.421545 a 16.644657,16.644657 0 0 0 -1.95079,-1.447982 c 0.21882,-0.343906 0.40269,-0.744935 0.46199,-1.179751 0.17986,-1.319212 -6.415752,-3.118114 -7.674984,-3.178122 -1.259258,-0.06048 -10.793714,-0.120385 -12.352734,-0.120385 -1.559028,0 -0.959115,1.798849 -0.959115,1.798849 l 0.04651,0.143669 h -19.29288 l 0.04651,-0.143669 c 0,0 0.599417,-1.798849 -0.95963,-1.798849 z"
       id="circle6605" />
    <g
       id="g6615"
       transform="matrix(1.2202606,0,0,1.2202606,-185.95369,-1319.9961)"
       style="stroke-width:0.81949711">
      <g
         aria-label="BackITY"
         transform="scale(1.2677542,0.78879644)"
         style="font-style:normal;font-variant:normal;font-weight:normal;font-stretch:normal;font-size:20.3995533px;line-height:12.74971962px;font-family:Lato;-inkscape-font-specification:Lato;letter-spacing:0px;word-spacing:0px;fill:#ffc107;fill-opacity:1;stroke:none;stroke-width:0.21682531"
         id="text6613">
        <path
           d="m 163.60043,1425.5962 h -3.38633 v 14.2797 h 3.52912 c 2.24395,0 3.40673,-1.1832 3.40673,-3.3864 v -1.1627 c 0,-1.5096 -0.46919,-2.5704 -1.67277,-3.0396 v -0.041 c 0.99958,-0.4692 1.44837,-1.3871 1.44837,-2.8559 v -0.51 c 0,-2.2032 -0.99958,-3.2843 -3.32512,-3.2843 z m -0.1428,7.8538 c 1.01998,0 1.44837,0.408 1.44837,1.734 v 1.2443 c 0,1.0608 -0.40799,1.4076 -1.16278,1.4076 h -1.28517 v -4.3859 z m 0.0816,-5.8139 c 0.79558,0 1.14237,0.4488 1.14237,1.4688 v 0.7956 c 0,1.1423 -0.50999,1.5095 -1.34637,1.5095 h -0.87718 v -3.7739 z"
           style="font-style:normal;font-variant:normal;font-weight:normal;font-stretch:normal;font-family:'Bebas Neue';-inkscape-font-specification:'Bebas Neue';fill:#ffc107;fill-opacity:1;stroke-width:0.21682531"
           id="path7295"
           inkscape:connector-curvature="0" />
        <path
           d="m 173.47891,1425.5962 h -3.28433 l -2.28475,14.2797 h 2.06036 l 0.38759,-2.5908 h 2.75394 l 0.38759,2.5908 h 2.26435 z m -1.77476,2.5295 h 0.0408 l 1.06077,7.2215 h -2.16235 z"
           style="font-style:normal;font-variant:normal;font-weight:normal;font-stretch:normal;font-family:'Bebas Neue';-inkscape-font-specification:'Bebas Neue';fill:#ffc107;fill-opacity:1;stroke-width:0.21682531"
           id="path7297"
           inkscape:connector-curvature="0" />
        <path
           d="m 181.1348,1434.5516 v 2.0399 c 0,1.02 -0.44879,1.3872 -1.16278,1.3872 -0.71398,0 -1.16277,-0.3672 -1.16277,-1.3872 v -7.711 c 0,-1.02 0.44879,-1.4076 1.16277,-1.4076 0.71399,0 1.16278,0.3876 1.16278,1.4076 v 1.53 h 2.12155 v -1.3872 c 0,-2.2848 -1.14237,-3.5903 -3.34553,-3.5903 -2.20315,0 -3.34552,1.3055 -3.34552,3.5903 v 7.4254 c 0,2.2848 1.14237,3.5904 3.34552,3.5904 2.20316,0 3.34553,-1.3056 3.34553,-3.5904 v -1.8971 z"
           style="font-style:normal;font-variant:normal;font-weight:normal;font-stretch:normal;font-family:'Bebas Neue';-inkscape-font-specification:'Bebas Neue';fill:#ffc107;fill-opacity:1;stroke-width:0.21682531"
           id="path7299"
           inkscape:connector-curvature="0" />
        <path
           d="m 189.75807,1439.8759 h 2.30515 l -3.12113,-7.9151 3.12113,-6.3646 h -2.24395 l -2.89674,6.181 h -0.0408 v -6.181 h -2.24395 v 14.2797 h 2.24395 v -4.3859 l 0.69359,-1.3056 z"
           style="font-style:normal;font-variant:normal;font-weight:normal;font-stretch:normal;font-family:'Bebas Neue';-inkscape-font-specification:'Bebas Neue';fill:#ffc107;fill-opacity:1;stroke-width:0.21682531"
           id="path7301"
           inkscape:connector-curvature="0" />
        <path
           d="m 193.08447,1439.8759 h 2.24395 v -14.2797 h -2.24395 z"
           style="font-style:normal;font-variant:normal;font-weight:normal;font-stretch:normal;font-family:'Bebas Neue';-inkscape-font-specification:'Bebas Neue';fill:#ffc107;fill-opacity:1;stroke-width:0.21682531"
           id="path7303"
           inkscape:connector-curvature="0" />
        <path
           d="m 196.29645,1427.6361 h 2.34595 v 12.2398 h 2.24395 v -12.2398 h 2.34595 v -2.0399 h -6.93585 z"
           style="font-style:normal;font-variant:normal;font-weight:normal;font-stretch:normal;font-family:'Bebas Neue';-inkscape-font-specification:'Bebas Neue';fill:#ffc107;fill-opacity:1;stroke-width:0.21682531"
           id="path7305"
           inkscape:connector-curvature="0" />
        <path
           d="m 206.30179,1439.8759 h 2.24395 v -4.7327 l 2.83554,-9.547 h -2.14195 l -1.69317,6.5074 h -0.0408 l -1.69316,-6.5074 h -2.34595 l 2.83554,9.547 z"
           style="font-style:normal;font-variant:normal;font-weight:normal;font-stretch:normal;font-family:'Bebas Neue';-inkscape-font-specification:'Bebas Neue';fill:#ffc107;fill-opacity:1;stroke-width:0.21682531"
           id="path7307"
           inkscape:connector-curvature="0" />
      </g>
    </g>
    <g
       style="stroke-width:1.10714281"
       id="g6621"
       transform="matrix(0.9032258,0,0,0.9032258,-129.59732,-112.64502)">
      <path
         style="color:#000000;font-style:normal;font-variant:normal;font-weight:normal;font-stretch:normal;font-size:medium;line-height:normal;font-family:sans-serif;font-variant-ligatures:normal;font-variant-position:normal;font-variant-caps:normal;font-variant-numeric:normal;font-variant-alternates:normal;font-feature-settings:normal;text-indent:0;text-align:start;text-decoration:none;text-decoration-line:none;text-decoration-style:solid;text-decoration-color:#000000;letter-spacing:normal;word-spacing:normal;text-transform:none;writing-mode:lr-tb;direction:ltr;text-orientation:mixed;dominant-baseline:auto;baseline-shift:baseline;text-anchor:start;white-space:normal;shape-padding:0;clip-rule:nonzero;display:inline;overflow:visible;visibility:visible;opacity:1;isolation:auto;mix-blend-mode:normal;color-interpolation:sRGB;color-interpolation-filters:linearRGB;solid-color:#000000;solid-opacity:1;vector-effect:none;fill:#ffc107;fill-opacity:1;fill-rule:nonzero;stroke:none;stroke-width:11.33858204;stroke-linecap:butt;stroke-linejoin:miter;stroke-miterlimit:4;stroke-dasharray:none;stroke-dashoffset:0;stroke-opacity:1;color-rendering:auto;image-rendering:auto;shape-rendering:auto;text-rendering:auto;enable-background:accumulate"
         d="m 62.888672,38.417969 c -0.543099,-0.01177 -1.086105,-0.0099 -1.628906,0.0059 -4.342414,0.125627 -8.656699,1.126935 -12.642578,3 -7.97159,3.7462 -14.109044,10.73017 -16.78711,19.115234 l 10.800781,3.455079 c 1.681281,-5.264165 5.793361,-9.951695 10.808594,-12.308594 5.015301,-2.356831 11.256254,-2.537481 16.400391,-0.474609 5.144068,2.062871 9.517564,6.503634 11.501953,11.662109 1.984354,5.158406 1.709843,11.373481 -0.726563,16.335937 -1.723986,3.50908 -4.553367,6.570782 -7.919922,8.574219 -3.367954,2.004291 -7.40813,3.028817 -11.328124,2.873047 -3.91979,-0.155668 -7.871094,-1.500591 -11.06836,-3.765625 -0.880199,-0.623543 -1.706379,-1.330819 -2.480469,-2.09375 l 7.421875,-5.550781 -24.833984,-7.326172 0.888672,25.236328 7.363281,-5.507812 c 1.525255,1.668463 3.228423,3.180213 5.085938,4.496093 5.024791,3.559706 11.020452,5.595418 17.175781,5.839848 6.152734,0.24306 12.283904,-1.31266 17.574219,-4.460941 C 83.786333,94.374074 88.076244,89.72845 90.789062,84.203166 94.66874,76.30104 95.084259,67.014536 91.923828,58.798828 88.763329,50.583155 82.23604,43.96992 74.060547,40.691406 70.483768,39.257057 66.690363,38.500361 62.888672,38.417969 Z"
         transform="matrix(0.29293155,0,0,0.29293155,179.81686,171.23672)"
         id="path6617"
         inkscape:connector-curvature="0" />
    </g>
  </g>
</svg>
